G04 #@! TF.FileFunction,Legend,Top*
%FSLAX46Y46*%
G04 Gerber Fmt 4.6, Leading zero omitted, Abs format (unit mm)*
G04 Created by KiCad (PCBNEW 4.0.7) date 06/07/18 19:04:20*
%MOMM*%
%LPD*%
G01*
G04 APERTURE LIST*
%ADD10C,0.100000*%
%ADD11C,0.120000*%
%ADD12C,0.150000*%
G04 APERTURE END LIST*
D10*
D11*
X103620000Y-135240000D02*
X183900000Y-135240000D01*
X183900000Y-135240000D02*
X183900000Y-98960000D01*
X183900000Y-98960000D02*
X104420000Y-98960000D01*
X103620000Y-98960000D02*
X103620000Y-135240000D01*
X103630000Y-98960000D02*
X104420000Y-98960000D01*
X110260000Y-98600000D02*
X113260000Y-98600000D01*
X111960000Y-109600000D02*
X175460000Y-109600000D01*
X111460280Y-124099320D02*
X111460280Y-110100000D01*
X175460660Y-124600000D02*
X111960000Y-124600000D01*
X175960000Y-110100000D02*
X175960000Y-124100000D01*
X175960000Y-110100000D02*
G75*
G03X175460000Y-109600000I-500000J0D01*
G01*
X175460660Y-124599700D02*
G75*
G03X175961040Y-124099320I0J500380D01*
G01*
X111460280Y-124099320D02*
G75*
G03X111960660Y-124599700I500380J0D01*
G01*
X111960660Y-109598460D02*
G75*
G03X111460280Y-110098840I0J-500380D01*
G01*
X106760000Y-104600000D02*
X179760000Y-104600000D01*
X179760000Y-104600000D02*
X179760000Y-129600000D01*
X179760000Y-129600000D02*
X106760000Y-129600000D01*
X106760000Y-129600000D02*
X106760000Y-104600000D01*
X98221000Y-120043000D02*
X98221000Y-121217000D01*
X96499000Y-120043000D02*
X96499000Y-121217000D01*
X135970000Y-81860000D02*
G75*
G02X135970000Y-83860000I0J-1000000D01*
G01*
X135970000Y-83860000D02*
X135970000Y-89320000D01*
X135970000Y-89320000D02*
X171650000Y-89320000D01*
X171650000Y-89320000D02*
X171650000Y-76400000D01*
X171650000Y-76400000D02*
X135970000Y-76400000D01*
X135970000Y-76400000D02*
X135970000Y-81860000D01*
X135910000Y-91810000D02*
X171710000Y-91810000D01*
X171710000Y-91810000D02*
X171710000Y-73910000D01*
X171710000Y-73910000D02*
X135910000Y-73910000D01*
X135910000Y-73910000D02*
X135910000Y-91810000D01*
X171880086Y-85543936D02*
X171880086Y-79293936D01*
X176930086Y-85543936D02*
X176930086Y-79293936D01*
X176930086Y-85543936D02*
G75*
G02X171880086Y-85543936I-2525000J0D01*
G01*
X176930086Y-79293936D02*
G75*
G03X171880086Y-79293936I-2525000J0D01*
G01*
X95295281Y-100205671D02*
G75*
G02X91750000Y-77760000I-45281J11495671D01*
G01*
X91723616Y-77761754D02*
G75*
G03X92250000Y-77010000I-273616J751754D01*
G01*
X95204719Y-100205671D02*
G75*
G03X98750000Y-77760000I45281J11495671D01*
G01*
X98776384Y-77761754D02*
G75*
G02X98250000Y-77010000I273616J751754D01*
G01*
X98250000Y-71310000D02*
X98250000Y-77010000D01*
X92250000Y-71310000D02*
X98250000Y-71310000D01*
X92250000Y-71310000D02*
X92250000Y-77010000D01*
X110280000Y-91800000D02*
X109080000Y-91800000D01*
X109080000Y-90040000D02*
X110280000Y-90040000D01*
X110300000Y-88030000D02*
X109100000Y-88030000D01*
X109100000Y-86270000D02*
X110300000Y-86270000D01*
X131840000Y-74950000D02*
X131840000Y-73750000D01*
X133600000Y-73750000D02*
X133600000Y-74950000D01*
X127520000Y-74870000D02*
X127520000Y-73670000D01*
X129280000Y-73670000D02*
X129280000Y-74870000D01*
X120540000Y-90710000D02*
X125040000Y-90710000D01*
X119290000Y-86710000D02*
X119290000Y-88210000D01*
X125040000Y-84210000D02*
X120540000Y-84210000D01*
X126290000Y-88210000D02*
X126290000Y-86710000D01*
X88820000Y-127040000D02*
X88820000Y-116800000D01*
X93461000Y-127040000D02*
X93461000Y-116800000D01*
X88820000Y-127040000D02*
X93461000Y-127040000D01*
X88820000Y-116800000D02*
X93461000Y-116800000D01*
X90330000Y-127040000D02*
X90330000Y-116800000D01*
X88820000Y-123770000D02*
X90330000Y-123770000D01*
X88820000Y-120069000D02*
X90330000Y-120069000D01*
X121680000Y-71770000D02*
G75*
G02X119680000Y-71770000I-1000000J0D01*
G01*
X119680000Y-71770000D02*
X118030000Y-71770000D01*
X118030000Y-71770000D02*
X118030000Y-82050000D01*
X118030000Y-82050000D02*
X123330000Y-82050000D01*
X123330000Y-82050000D02*
X123330000Y-71770000D01*
X123330000Y-71770000D02*
X121680000Y-71770000D01*
X108710000Y-73090000D02*
X101810000Y-73090000D01*
X101810000Y-73090000D02*
X101810000Y-75550000D01*
X101810000Y-75550000D02*
X108710000Y-75550000D01*
X108710000Y-75550000D02*
X108710000Y-73090000D01*
X108710000Y-73970000D02*
X109610000Y-73370000D01*
X109610000Y-73370000D02*
X109810000Y-73370000D01*
X108710000Y-74670000D02*
X109610000Y-75270000D01*
X109610000Y-75270000D02*
X109810000Y-75270000D01*
X114299000Y-89017000D02*
X114299000Y-87843000D01*
X116021000Y-89017000D02*
X116021000Y-87843000D01*
X98261000Y-125143000D02*
X98261000Y-126317000D01*
X96539000Y-125143000D02*
X96539000Y-126317000D01*
X181257000Y-80801000D02*
X180083000Y-80801000D01*
X181257000Y-79079000D02*
X180083000Y-79079000D01*
X181397000Y-85771000D02*
X180223000Y-85771000D01*
X181397000Y-84049000D02*
X180223000Y-84049000D01*
X117700000Y-92920000D02*
X117700000Y-96640000D01*
X115980000Y-92920000D02*
X115980000Y-96640000D01*
X174120000Y-92500000D02*
X174120000Y-91300000D01*
X175880000Y-91300000D02*
X175880000Y-92500000D01*
D12*
X104725714Y-98242381D02*
X104725714Y-97242381D01*
X104963809Y-97242381D01*
X105106667Y-97290000D01*
X105201905Y-97385238D01*
X105249524Y-97480476D01*
X105297143Y-97670952D01*
X105297143Y-97813810D01*
X105249524Y-98004286D01*
X105201905Y-98099524D01*
X105106667Y-98194762D01*
X104963809Y-98242381D01*
X104725714Y-98242381D01*
X105678095Y-98194762D02*
X105820952Y-98242381D01*
X106059048Y-98242381D01*
X106154286Y-98194762D01*
X106201905Y-98147143D01*
X106249524Y-98051905D01*
X106249524Y-97956667D01*
X106201905Y-97861429D01*
X106154286Y-97813810D01*
X106059048Y-97766190D01*
X105868571Y-97718571D01*
X105773333Y-97670952D01*
X105725714Y-97623333D01*
X105678095Y-97528095D01*
X105678095Y-97432857D01*
X105725714Y-97337619D01*
X105773333Y-97290000D01*
X105868571Y-97242381D01*
X106106667Y-97242381D01*
X106249524Y-97290000D01*
X107201905Y-98242381D02*
X106630476Y-98242381D01*
X106916190Y-98242381D02*
X106916190Y-97242381D01*
X106820952Y-97385238D01*
X106725714Y-97480476D01*
X106630476Y-97528095D01*
X97083334Y-117607143D02*
X97035715Y-117654762D01*
X96892858Y-117702381D01*
X96797620Y-117702381D01*
X96654762Y-117654762D01*
X96559524Y-117559524D01*
X96511905Y-117464286D01*
X96464286Y-117273810D01*
X96464286Y-117130952D01*
X96511905Y-116940476D01*
X96559524Y-116845238D01*
X96654762Y-116750000D01*
X96797620Y-116702381D01*
X96892858Y-116702381D01*
X97035715Y-116750000D01*
X97083334Y-116797619D01*
X97416667Y-116702381D02*
X98035715Y-116702381D01*
X97702381Y-117083333D01*
X97845239Y-117083333D01*
X97940477Y-117130952D01*
X97988096Y-117178571D01*
X98035715Y-117273810D01*
X98035715Y-117511905D01*
X97988096Y-117607143D01*
X97940477Y-117654762D01*
X97845239Y-117702381D01*
X97559524Y-117702381D01*
X97464286Y-117654762D01*
X97416667Y-117607143D01*
X136738095Y-72442381D02*
X136738095Y-73251905D01*
X136785714Y-73347143D01*
X136833333Y-73394762D01*
X136928571Y-73442381D01*
X137119048Y-73442381D01*
X137214286Y-73394762D01*
X137261905Y-73347143D01*
X137309524Y-73251905D01*
X137309524Y-72442381D01*
X137738095Y-72537619D02*
X137785714Y-72490000D01*
X137880952Y-72442381D01*
X138119048Y-72442381D01*
X138214286Y-72490000D01*
X138261905Y-72537619D01*
X138309524Y-72632857D01*
X138309524Y-72728095D01*
X138261905Y-72870952D01*
X137690476Y-73442381D01*
X138309524Y-73442381D01*
X174023809Y-75726190D02*
X174023809Y-76202381D01*
X173690476Y-75202381D02*
X174023809Y-75726190D01*
X174357143Y-75202381D01*
X175214286Y-76202381D02*
X174642857Y-76202381D01*
X174928571Y-76202381D02*
X174928571Y-75202381D01*
X174833333Y-75345238D01*
X174738095Y-75440476D01*
X174642857Y-75488095D01*
X84756667Y-123912381D02*
X84756667Y-124626667D01*
X84709047Y-124769524D01*
X84613809Y-124864762D01*
X84470952Y-124912381D01*
X84375714Y-124912381D01*
X85756667Y-124912381D02*
X85185238Y-124912381D01*
X85470952Y-124912381D02*
X85470952Y-123912381D01*
X85375714Y-124055238D01*
X85280476Y-124150476D01*
X85185238Y-124198095D01*
X94714286Y-69928571D02*
X94857143Y-69976190D01*
X94904762Y-70023810D01*
X94952381Y-70119048D01*
X94952381Y-70261905D01*
X94904762Y-70357143D01*
X94857143Y-70404762D01*
X94761905Y-70452381D01*
X94380952Y-70452381D01*
X94380952Y-69452381D01*
X94714286Y-69452381D01*
X94809524Y-69500000D01*
X94857143Y-69547619D01*
X94904762Y-69642857D01*
X94904762Y-69738095D01*
X94857143Y-69833333D01*
X94809524Y-69880952D01*
X94714286Y-69928571D01*
X94380952Y-69928571D01*
X95238095Y-69452381D02*
X95809524Y-69452381D01*
X95523809Y-70452381D02*
X95523809Y-69452381D01*
X96666667Y-70452381D02*
X96095238Y-70452381D01*
X96380952Y-70452381D02*
X96380952Y-69452381D01*
X96285714Y-69595238D01*
X96190476Y-69690476D01*
X96095238Y-69738095D01*
X95357143Y-76831428D02*
X95357143Y-75688571D01*
X95928571Y-76260000D02*
X94785714Y-76260000D01*
X84756667Y-112482381D02*
X84756667Y-113196667D01*
X84709047Y-113339524D01*
X84613809Y-113434762D01*
X84470952Y-113482381D01*
X84375714Y-113482381D01*
X85185238Y-112577619D02*
X85232857Y-112530000D01*
X85328095Y-112482381D01*
X85566191Y-112482381D01*
X85661429Y-112530000D01*
X85709048Y-112577619D01*
X85756667Y-112672857D01*
X85756667Y-112768095D01*
X85709048Y-112910952D01*
X85137619Y-113482381D01*
X85756667Y-113482381D01*
X109513334Y-89672381D02*
X109180000Y-89196190D01*
X108941905Y-89672381D02*
X108941905Y-88672381D01*
X109322858Y-88672381D01*
X109418096Y-88720000D01*
X109465715Y-88767619D01*
X109513334Y-88862857D01*
X109513334Y-89005714D01*
X109465715Y-89100952D01*
X109418096Y-89148571D01*
X109322858Y-89196190D01*
X108941905Y-89196190D01*
X110465715Y-89672381D02*
X109894286Y-89672381D01*
X110180000Y-89672381D02*
X110180000Y-88672381D01*
X110084762Y-88815238D01*
X109989524Y-88910476D01*
X109894286Y-88958095D01*
X109533334Y-85902381D02*
X109200000Y-85426190D01*
X108961905Y-85902381D02*
X108961905Y-84902381D01*
X109342858Y-84902381D01*
X109438096Y-84950000D01*
X109485715Y-84997619D01*
X109533334Y-85092857D01*
X109533334Y-85235714D01*
X109485715Y-85330952D01*
X109438096Y-85378571D01*
X109342858Y-85426190D01*
X108961905Y-85426190D01*
X109914286Y-84997619D02*
X109961905Y-84950000D01*
X110057143Y-84902381D01*
X110295239Y-84902381D01*
X110390477Y-84950000D01*
X110438096Y-84997619D01*
X110485715Y-85092857D01*
X110485715Y-85188095D01*
X110438096Y-85330952D01*
X109866667Y-85902381D01*
X110485715Y-85902381D01*
X132493334Y-71452381D02*
X132160000Y-70976190D01*
X131921905Y-71452381D02*
X131921905Y-70452381D01*
X132302858Y-70452381D01*
X132398096Y-70500000D01*
X132445715Y-70547619D01*
X132493334Y-70642857D01*
X132493334Y-70785714D01*
X132445715Y-70880952D01*
X132398096Y-70928571D01*
X132302858Y-70976190D01*
X131921905Y-70976190D01*
X132826667Y-70452381D02*
X133445715Y-70452381D01*
X133112381Y-70833333D01*
X133255239Y-70833333D01*
X133350477Y-70880952D01*
X133398096Y-70928571D01*
X133445715Y-71023810D01*
X133445715Y-71261905D01*
X133398096Y-71357143D01*
X133350477Y-71404762D01*
X133255239Y-71452381D01*
X132969524Y-71452381D01*
X132874286Y-71404762D01*
X132826667Y-71357143D01*
X128273334Y-71452381D02*
X127940000Y-70976190D01*
X127701905Y-71452381D02*
X127701905Y-70452381D01*
X128082858Y-70452381D01*
X128178096Y-70500000D01*
X128225715Y-70547619D01*
X128273334Y-70642857D01*
X128273334Y-70785714D01*
X128225715Y-70880952D01*
X128178096Y-70928571D01*
X128082858Y-70976190D01*
X127701905Y-70976190D01*
X129178096Y-70452381D02*
X128701905Y-70452381D01*
X128654286Y-70928571D01*
X128701905Y-70880952D01*
X128797143Y-70833333D01*
X129035239Y-70833333D01*
X129130477Y-70880952D01*
X129178096Y-70928571D01*
X129225715Y-71023810D01*
X129225715Y-71261905D01*
X129178096Y-71357143D01*
X129130477Y-71404762D01*
X129035239Y-71452381D01*
X128797143Y-71452381D01*
X128701905Y-71404762D01*
X128654286Y-71357143D01*
X121456667Y-83614762D02*
X121599524Y-83662381D01*
X121837620Y-83662381D01*
X121932858Y-83614762D01*
X121980477Y-83567143D01*
X122028096Y-83471905D01*
X122028096Y-83376667D01*
X121980477Y-83281429D01*
X121932858Y-83233810D01*
X121837620Y-83186190D01*
X121647143Y-83138571D01*
X121551905Y-83090952D01*
X121504286Y-83043333D01*
X121456667Y-82948095D01*
X121456667Y-82852857D01*
X121504286Y-82757619D01*
X121551905Y-82710000D01*
X121647143Y-82662381D01*
X121885239Y-82662381D01*
X122028096Y-82710000D01*
X122361429Y-82662381D02*
X122599524Y-83662381D01*
X122790001Y-82948095D01*
X122980477Y-83662381D01*
X123218572Y-82662381D01*
X124123334Y-83662381D02*
X123551905Y-83662381D01*
X123837619Y-83662381D02*
X123837619Y-82662381D01*
X123742381Y-82805238D01*
X123647143Y-82900476D01*
X123551905Y-82948095D01*
X90678095Y-115022381D02*
X90678095Y-115831905D01*
X90725714Y-115927143D01*
X90773333Y-115974762D01*
X90868571Y-116022381D01*
X91059048Y-116022381D01*
X91154286Y-115974762D01*
X91201905Y-115927143D01*
X91249524Y-115831905D01*
X91249524Y-115022381D01*
X92249524Y-116022381D02*
X91678095Y-116022381D01*
X91963809Y-116022381D02*
X91963809Y-115022381D01*
X91868571Y-115165238D01*
X91773333Y-115260476D01*
X91678095Y-115308095D01*
X119918095Y-70222381D02*
X119918095Y-71031905D01*
X119965714Y-71127143D01*
X120013333Y-71174762D01*
X120108571Y-71222381D01*
X120299048Y-71222381D01*
X120394286Y-71174762D01*
X120441905Y-71127143D01*
X120489524Y-71031905D01*
X120489524Y-70222381D01*
X120870476Y-70222381D02*
X121489524Y-70222381D01*
X121156190Y-70603333D01*
X121299048Y-70603333D01*
X121394286Y-70650952D01*
X121441905Y-70698571D01*
X121489524Y-70793810D01*
X121489524Y-71031905D01*
X121441905Y-71127143D01*
X121394286Y-71174762D01*
X121299048Y-71222381D01*
X121013333Y-71222381D01*
X120918095Y-71174762D01*
X120870476Y-71127143D01*
X104953809Y-71746190D02*
X104953809Y-72222381D01*
X104620476Y-71222381D02*
X104953809Y-71746190D01*
X105287143Y-71222381D01*
X105572857Y-71317619D02*
X105620476Y-71270000D01*
X105715714Y-71222381D01*
X105953810Y-71222381D01*
X106049048Y-71270000D01*
X106096667Y-71317619D01*
X106144286Y-71412857D01*
X106144286Y-71508095D01*
X106096667Y-71650952D01*
X105525238Y-72222381D01*
X106144286Y-72222381D01*
X113607143Y-88666666D02*
X113654762Y-88714285D01*
X113702381Y-88857142D01*
X113702381Y-88952380D01*
X113654762Y-89095238D01*
X113559524Y-89190476D01*
X113464286Y-89238095D01*
X113273810Y-89285714D01*
X113130952Y-89285714D01*
X112940476Y-89238095D01*
X112845238Y-89190476D01*
X112750000Y-89095238D01*
X112702381Y-88952380D01*
X112702381Y-88857142D01*
X112750000Y-88714285D01*
X112797619Y-88666666D01*
X113702381Y-87714285D02*
X113702381Y-88285714D01*
X113702381Y-88000000D02*
X112702381Y-88000000D01*
X112845238Y-88095238D01*
X112940476Y-88190476D01*
X112988095Y-88285714D01*
X96107143Y-125896666D02*
X96154762Y-125944285D01*
X96202381Y-126087142D01*
X96202381Y-126182380D01*
X96154762Y-126325238D01*
X96059524Y-126420476D01*
X95964286Y-126468095D01*
X95773810Y-126515714D01*
X95630952Y-126515714D01*
X95440476Y-126468095D01*
X95345238Y-126420476D01*
X95250000Y-126325238D01*
X95202381Y-126182380D01*
X95202381Y-126087142D01*
X95250000Y-125944285D01*
X95297619Y-125896666D01*
X95297619Y-125515714D02*
X95250000Y-125468095D01*
X95202381Y-125372857D01*
X95202381Y-125134761D01*
X95250000Y-125039523D01*
X95297619Y-124991904D01*
X95392857Y-124944285D01*
X95488095Y-124944285D01*
X95630952Y-124991904D01*
X96202381Y-125563333D01*
X96202381Y-124944285D01*
X180333334Y-78357143D02*
X180285715Y-78404762D01*
X180142858Y-78452381D01*
X180047620Y-78452381D01*
X179904762Y-78404762D01*
X179809524Y-78309524D01*
X179761905Y-78214286D01*
X179714286Y-78023810D01*
X179714286Y-77880952D01*
X179761905Y-77690476D01*
X179809524Y-77595238D01*
X179904762Y-77500000D01*
X180047620Y-77452381D01*
X180142858Y-77452381D01*
X180285715Y-77500000D01*
X180333334Y-77547619D01*
X181190477Y-77785714D02*
X181190477Y-78452381D01*
X180952381Y-77404762D02*
X180714286Y-78119048D01*
X181333334Y-78119048D01*
X180583334Y-83357143D02*
X180535715Y-83404762D01*
X180392858Y-83452381D01*
X180297620Y-83452381D01*
X180154762Y-83404762D01*
X180059524Y-83309524D01*
X180011905Y-83214286D01*
X179964286Y-83023810D01*
X179964286Y-82880952D01*
X180011905Y-82690476D01*
X180059524Y-82595238D01*
X180154762Y-82500000D01*
X180297620Y-82452381D01*
X180392858Y-82452381D01*
X180535715Y-82500000D01*
X180583334Y-82547619D01*
X181488096Y-82452381D02*
X181011905Y-82452381D01*
X180964286Y-82928571D01*
X181011905Y-82880952D01*
X181107143Y-82833333D01*
X181345239Y-82833333D01*
X181440477Y-82880952D01*
X181488096Y-82928571D01*
X181535715Y-83023810D01*
X181535715Y-83261905D01*
X181488096Y-83357143D01*
X181440477Y-83404762D01*
X181345239Y-83452381D01*
X181107143Y-83452381D01*
X181011905Y-83404762D01*
X180964286Y-83357143D01*
X115702381Y-94916666D02*
X115226190Y-95250000D01*
X115702381Y-95488095D02*
X114702381Y-95488095D01*
X114702381Y-95107142D01*
X114750000Y-95011904D01*
X114797619Y-94964285D01*
X114892857Y-94916666D01*
X115035714Y-94916666D01*
X115130952Y-94964285D01*
X115178571Y-95011904D01*
X115226190Y-95107142D01*
X115226190Y-95488095D01*
X114702381Y-94059523D02*
X114702381Y-94250000D01*
X114750000Y-94345238D01*
X114797619Y-94392857D01*
X114940476Y-94488095D01*
X115130952Y-94535714D01*
X115511905Y-94535714D01*
X115607143Y-94488095D01*
X115654762Y-94440476D01*
X115702381Y-94345238D01*
X115702381Y-94154761D01*
X115654762Y-94059523D01*
X115607143Y-94011904D01*
X115511905Y-93964285D01*
X115273810Y-93964285D01*
X115178571Y-94011904D01*
X115130952Y-94059523D01*
X115083333Y-94154761D01*
X115083333Y-94345238D01*
X115130952Y-94440476D01*
X115178571Y-94488095D01*
X115273810Y-94535714D01*
X177152381Y-92066666D02*
X176676190Y-92400000D01*
X177152381Y-92638095D02*
X176152381Y-92638095D01*
X176152381Y-92257142D01*
X176200000Y-92161904D01*
X176247619Y-92114285D01*
X176342857Y-92066666D01*
X176485714Y-92066666D01*
X176580952Y-92114285D01*
X176628571Y-92161904D01*
X176676190Y-92257142D01*
X176676190Y-92638095D01*
X176485714Y-91209523D02*
X177152381Y-91209523D01*
X176104762Y-91447619D02*
X176819048Y-91685714D01*
X176819048Y-91066666D01*
M02*
