G04 #@! TF.FileFunction,Soldermask,Bot*
%FSLAX46Y46*%
G04 Gerber Fmt 4.6, Leading zero omitted, Abs format (unit mm)*
G04 Created by KiCad (PCBNEW 4.0.7) date 06/07/18 19:04:20*
%MOMM*%
%LPD*%
G01*
G04 APERTURE LIST*
%ADD10C,0.100000*%
%ADD11R,2.200000X3.000000*%
%ADD12O,2.200000X3.000000*%
%ADD13C,3.400000*%
%ADD14C,2.000000*%
%ADD15R,2.000000X2.000000*%
%ADD16O,2.000000X2.000000*%
%ADD17C,1.900000*%
%ADD18C,3.600000*%
%ADD19R,3.400000X3.400000*%
%ADD20C,2.400000*%
%ADD21R,2.200000X2.200000*%
%ADD22O,2.200000X2.200000*%
%ADD23C,1.400000*%
%ADD24C,1.800000*%
%ADD25O,1.800000X1.800000*%
G04 APERTURE END LIST*
D10*
D11*
X111760000Y-101600000D03*
D12*
X114300000Y-101600000D03*
X116840000Y-101600000D03*
X119380000Y-101600000D03*
X121920000Y-101600000D03*
X124460000Y-101600000D03*
X127000000Y-101600000D03*
X129540000Y-101600000D03*
X132080000Y-101600000D03*
X134620000Y-101600000D03*
X137160000Y-101600000D03*
X139700000Y-101600000D03*
X142240000Y-101600000D03*
X144780000Y-101600000D03*
X147320000Y-101600000D03*
X149860000Y-101600000D03*
D13*
X106260900Y-101600000D03*
X106260900Y-132600700D03*
X181259480Y-132600700D03*
X181260000Y-101600000D03*
D14*
X97360000Y-119380000D03*
X97360000Y-121880000D03*
D15*
X137300000Y-90480000D03*
D16*
X170320000Y-75240000D03*
X139840000Y-90480000D03*
X167780000Y-75240000D03*
X142380000Y-90480000D03*
X165240000Y-75240000D03*
X144920000Y-90480000D03*
X162700000Y-75240000D03*
X147460000Y-90480000D03*
X160160000Y-75240000D03*
X150000000Y-90480000D03*
X157620000Y-75240000D03*
X152540000Y-90480000D03*
X155080000Y-75240000D03*
X155080000Y-90480000D03*
X152540000Y-75240000D03*
X157620000Y-90480000D03*
X150000000Y-75240000D03*
X160160000Y-90480000D03*
X147460000Y-75240000D03*
X162700000Y-90480000D03*
X144920000Y-75240000D03*
X165240000Y-90480000D03*
X142380000Y-75240000D03*
X167780000Y-90480000D03*
X139840000Y-75240000D03*
X170320000Y-90480000D03*
X137300000Y-75240000D03*
D17*
X174405086Y-84858936D03*
X174405086Y-79978936D03*
D18*
X85090000Y-127000000D03*
D13*
X95250000Y-94000000D03*
D19*
X95250000Y-73510000D03*
D18*
X85090000Y-115570000D03*
D20*
X119540000Y-89710000D03*
X119540000Y-85210000D03*
X126040000Y-89710000D03*
X126040000Y-85210000D03*
D21*
X91440000Y-124460000D03*
D22*
X91440000Y-121920000D03*
X91440000Y-119380000D03*
D15*
X116870000Y-73100000D03*
D16*
X124490000Y-80720000D03*
X116870000Y-75640000D03*
X124490000Y-78180000D03*
X116870000Y-78180000D03*
X124490000Y-75640000D03*
X116870000Y-80720000D03*
X124490000Y-73100000D03*
D23*
X110510000Y-73370000D03*
X110510000Y-75270000D03*
D14*
X115160000Y-89680000D03*
X115160000Y-87180000D03*
X97400000Y-124480000D03*
X97400000Y-126980000D03*
X181920000Y-79940000D03*
X179420000Y-79940000D03*
X182060000Y-84910000D03*
X179560000Y-84910000D03*
D24*
X116840000Y-92240000D03*
D25*
X116840000Y-97320000D03*
M02*
