M48
;DRILL file {KiCad 4.0.7} date 06/07/18 19:20:41
;FORMAT={-:-/ absolute / metric / decimal}
FMAT,2
METRIC,TZ
T1C0.500
T2C0.700
T3C0.800
T4C1.000
T5C1.100
T6C1.200
T7C1.500
T8C2.500
%
G90
G05
M71
T1
X110.51Y-73.37
X110.51Y-75.27
T2
X116.84Y-92.24
X116.84Y-97.32
T3
X97.36Y-119.38
X97.36Y-121.88
X97.4Y-124.48
X97.4Y-126.98
X115.16Y-87.18
X115.16Y-89.68
X116.87Y-73.1
X116.87Y-75.64
X116.87Y-78.18
X116.87Y-80.72
X124.49Y-73.1
X124.49Y-75.64
X124.49Y-78.18
X124.49Y-80.72
X137.3Y-75.24
X137.3Y-90.48
X139.84Y-75.24
X139.84Y-90.48
X142.38Y-75.24
X142.38Y-90.48
X144.92Y-75.24
X144.92Y-90.48
X147.46Y-75.24
X147.46Y-90.48
X150.Y-75.24
X150.Y-90.48
X152.54Y-75.24
X152.54Y-90.48
X155.08Y-75.24
X155.08Y-90.48
X157.62Y-75.24
X157.62Y-90.48
X160.16Y-75.24
X160.16Y-90.48
X162.7Y-75.24
X162.7Y-90.48
X165.24Y-75.24
X165.24Y-90.48
X167.78Y-75.24
X167.78Y-90.48
X170.32Y-75.24
X170.32Y-90.48
X174.405Y-79.979
X174.405Y-84.859
X179.42Y-79.94
X179.56Y-84.91
X181.92Y-79.94
X182.06Y-84.91
T4
X91.44Y-119.38
X91.44Y-121.92
X91.44Y-124.46
T5
X119.54Y-85.21
X119.54Y-89.71
X126.04Y-85.21
X126.04Y-89.71
T6
X111.76Y-101.6
X114.3Y-101.6
X116.84Y-101.6
X119.38Y-101.6
X121.92Y-101.6
X124.46Y-101.6
X127.Y-101.6
X129.54Y-101.6
X132.08Y-101.6
X134.62Y-101.6
X137.16Y-101.6
X139.7Y-101.6
X142.24Y-101.6
X144.78Y-101.6
X147.32Y-101.6
X149.86Y-101.6
T7
X95.25Y-73.51
X95.25Y-94.
T8
X106.261Y-101.6
X106.261Y-132.601
X181.259Y-132.601
X181.26Y-101.6
T0
M30
