G04 #@! TF.FileFunction,Copper,L2,Bot,Signal*
%FSLAX46Y46*%
G04 Gerber Fmt 4.6, Leading zero omitted, Abs format (unit mm)*
G04 Created by KiCad (PCBNEW 4.0.7) date 06/07/18 19:04:20*
%MOMM*%
%LPD*%
G01*
G04 APERTURE LIST*
%ADD10C,0.100000*%
%ADD11R,1.800000X2.600000*%
%ADD12O,1.800000X2.600000*%
%ADD13C,3.000000*%
%ADD14C,1.600000*%
%ADD15R,1.600000X1.600000*%
%ADD16O,1.600000X1.600000*%
%ADD17C,1.500000*%
%ADD18R,3.000000X3.000000*%
%ADD19C,2.000000*%
%ADD20R,1.800000X1.800000*%
%ADD21O,1.800000X1.800000*%
%ADD22C,1.000000*%
%ADD23C,1.400000*%
%ADD24O,1.400000X1.400000*%
%ADD25C,0.254000*%
G04 APERTURE END LIST*
D10*
D11*
X111760000Y-101600000D03*
D12*
X114300000Y-101600000D03*
X116840000Y-101600000D03*
X119380000Y-101600000D03*
X121920000Y-101600000D03*
X124460000Y-101600000D03*
X127000000Y-101600000D03*
X129540000Y-101600000D03*
X132080000Y-101600000D03*
X134620000Y-101600000D03*
X137160000Y-101600000D03*
X139700000Y-101600000D03*
X142240000Y-101600000D03*
X144780000Y-101600000D03*
X147320000Y-101600000D03*
X149860000Y-101600000D03*
D13*
X106260900Y-101600000D03*
X106260900Y-132600700D03*
X181259480Y-132600700D03*
X181260000Y-101600000D03*
D14*
X97360000Y-119380000D03*
X97360000Y-121880000D03*
D15*
X137300000Y-90480000D03*
D16*
X170320000Y-75240000D03*
X139840000Y-90480000D03*
X167780000Y-75240000D03*
X142380000Y-90480000D03*
X165240000Y-75240000D03*
X144920000Y-90480000D03*
X162700000Y-75240000D03*
X147460000Y-90480000D03*
X160160000Y-75240000D03*
X150000000Y-90480000D03*
X157620000Y-75240000D03*
X152540000Y-90480000D03*
X155080000Y-75240000D03*
X155080000Y-90480000D03*
X152540000Y-75240000D03*
X157620000Y-90480000D03*
X150000000Y-75240000D03*
X160160000Y-90480000D03*
X147460000Y-75240000D03*
X162700000Y-90480000D03*
X144920000Y-75240000D03*
X165240000Y-90480000D03*
X142380000Y-75240000D03*
X167780000Y-90480000D03*
X139840000Y-75240000D03*
X170320000Y-90480000D03*
X137300000Y-75240000D03*
D17*
X174405086Y-84858936D03*
X174405086Y-79978936D03*
D13*
X95250000Y-94000000D03*
D18*
X95250000Y-73510000D03*
D19*
X119540000Y-89710000D03*
X119540000Y-85210000D03*
X126040000Y-89710000D03*
X126040000Y-85210000D03*
D20*
X91440000Y-124460000D03*
D21*
X91440000Y-121920000D03*
X91440000Y-119380000D03*
D15*
X116870000Y-73100000D03*
D16*
X124490000Y-80720000D03*
X116870000Y-75640000D03*
X124490000Y-78180000D03*
X116870000Y-78180000D03*
X124490000Y-75640000D03*
X116870000Y-80720000D03*
X124490000Y-73100000D03*
D22*
X110510000Y-73370000D03*
X110510000Y-75270000D03*
D14*
X115160000Y-89680000D03*
X115160000Y-87180000D03*
X97400000Y-124480000D03*
X97400000Y-126980000D03*
X181920000Y-79940000D03*
X179420000Y-79940000D03*
X182060000Y-84910000D03*
X179560000Y-84910000D03*
D23*
X116840000Y-92240000D03*
D24*
X116840000Y-97320000D03*
D25*
G36*
X183982030Y-133223000D02*
X183312822Y-133223000D01*
X183394108Y-133027241D01*
X183394850Y-132177885D01*
X183070500Y-131392900D01*
X182470439Y-130791791D01*
X181686021Y-130466072D01*
X180836665Y-130465330D01*
X180051680Y-130789680D01*
X179450571Y-131389741D01*
X179124852Y-132174159D01*
X179124110Y-133023515D01*
X179206536Y-133223000D01*
X108314242Y-133223000D01*
X108395528Y-133027241D01*
X108396270Y-132177885D01*
X108071920Y-131392900D01*
X107471859Y-130791791D01*
X106687441Y-130466072D01*
X105838085Y-130465330D01*
X105053100Y-130789680D01*
X104451991Y-131389741D01*
X104126272Y-132174159D01*
X104125530Y-133023515D01*
X104207956Y-133223000D01*
X82636030Y-133223000D01*
X82636030Y-128586202D01*
X83683403Y-128586202D01*
X83855390Y-128915360D01*
X84682346Y-129242026D01*
X85571363Y-129227365D01*
X86324610Y-128915360D01*
X86496597Y-128586202D01*
X85090000Y-127179605D01*
X83683403Y-128586202D01*
X82636030Y-128586202D01*
X82636030Y-126592346D01*
X82847974Y-126592346D01*
X82862635Y-127481363D01*
X83174640Y-128234610D01*
X83503798Y-128406597D01*
X84910395Y-127000000D01*
X85269605Y-127000000D01*
X86676202Y-128406597D01*
X87005360Y-128234610D01*
X87332026Y-127407654D01*
X87329661Y-127264187D01*
X95964752Y-127264187D01*
X96182757Y-127791800D01*
X96586077Y-128195824D01*
X97113309Y-128414750D01*
X97684187Y-128415248D01*
X98211800Y-128197243D01*
X98615824Y-127793923D01*
X98834750Y-127266691D01*
X98835248Y-126695813D01*
X98617243Y-126168200D01*
X98213923Y-125764176D01*
X98147456Y-125736577D01*
X98154005Y-125733864D01*
X98228139Y-125487745D01*
X97400000Y-124659605D01*
X96571861Y-125487745D01*
X96645995Y-125733864D01*
X96652483Y-125736196D01*
X96588200Y-125762757D01*
X96184176Y-126166077D01*
X95965250Y-126693309D01*
X95964752Y-127264187D01*
X87329661Y-127264187D01*
X87317365Y-126518637D01*
X87005360Y-125765390D01*
X86676202Y-125593403D01*
X85269605Y-127000000D01*
X84910395Y-127000000D01*
X83503798Y-125593403D01*
X83174640Y-125765390D01*
X82847974Y-126592346D01*
X82636030Y-126592346D01*
X82636030Y-125413798D01*
X83683403Y-125413798D01*
X85090000Y-126820395D01*
X86496597Y-125413798D01*
X86324610Y-125084640D01*
X85497654Y-124757974D01*
X84608637Y-124772635D01*
X83855390Y-125084640D01*
X83683403Y-125413798D01*
X82636030Y-125413798D01*
X82636030Y-124745750D01*
X89905000Y-124745750D01*
X89905000Y-125486309D01*
X90001673Y-125719698D01*
X90180301Y-125898327D01*
X90413690Y-125995000D01*
X91154250Y-125995000D01*
X91313000Y-125836250D01*
X91313000Y-124587000D01*
X91567000Y-124587000D01*
X91567000Y-125836250D01*
X91725750Y-125995000D01*
X92466310Y-125995000D01*
X92699699Y-125898327D01*
X92878327Y-125719698D01*
X92975000Y-125486309D01*
X92975000Y-124745750D01*
X92816250Y-124587000D01*
X91567000Y-124587000D01*
X91313000Y-124587000D01*
X90063750Y-124587000D01*
X89905000Y-124745750D01*
X82636030Y-124745750D01*
X82636030Y-119349928D01*
X89905000Y-119349928D01*
X89905000Y-119410072D01*
X90021845Y-119997491D01*
X90354591Y-120495481D01*
X90585845Y-120650000D01*
X90354591Y-120804519D01*
X90021845Y-121302509D01*
X89905000Y-121889928D01*
X89905000Y-121950072D01*
X90021845Y-122537491D01*
X90309583Y-122968122D01*
X90180301Y-123021673D01*
X90001673Y-123200302D01*
X89905000Y-123433691D01*
X89905000Y-124174250D01*
X90063750Y-124333000D01*
X91313000Y-124333000D01*
X91313000Y-124313000D01*
X91567000Y-124313000D01*
X91567000Y-124333000D01*
X92816250Y-124333000D01*
X92886027Y-124263223D01*
X95953035Y-124263223D01*
X95980222Y-124833454D01*
X96146136Y-125234005D01*
X96392255Y-125308139D01*
X97220395Y-124480000D01*
X97579605Y-124480000D01*
X98407745Y-125308139D01*
X98653864Y-125234005D01*
X98846965Y-124696777D01*
X98819778Y-124126546D01*
X98653864Y-123725995D01*
X98407745Y-123651861D01*
X97579605Y-124480000D01*
X97220395Y-124480000D01*
X96392255Y-123651861D01*
X96146136Y-123725995D01*
X95953035Y-124263223D01*
X92886027Y-124263223D01*
X92975000Y-124174250D01*
X92975000Y-123433691D01*
X92878327Y-123200302D01*
X92699699Y-123021673D01*
X92570417Y-122968122D01*
X92858155Y-122537491D01*
X92975000Y-121950072D01*
X92975000Y-121889928D01*
X92858155Y-121302509D01*
X92525409Y-120804519D01*
X92294155Y-120650000D01*
X92525409Y-120495481D01*
X92858155Y-119997491D01*
X92924453Y-119664187D01*
X95924752Y-119664187D01*
X96142757Y-120191800D01*
X96546077Y-120595824D01*
X96627931Y-120629813D01*
X96548200Y-120662757D01*
X96144176Y-121066077D01*
X95925250Y-121593309D01*
X95924752Y-122164187D01*
X96142757Y-122691800D01*
X96546077Y-123095824D01*
X96753081Y-123181780D01*
X96645995Y-123226136D01*
X96571861Y-123472255D01*
X97400000Y-124300395D01*
X98228139Y-123472255D01*
X98154005Y-123226136D01*
X97996698Y-123169594D01*
X98171800Y-123097243D01*
X98575824Y-122693923D01*
X98794750Y-122166691D01*
X98795248Y-121595813D01*
X98577243Y-121068200D01*
X98173923Y-120664176D01*
X98092069Y-120630187D01*
X98171800Y-120597243D01*
X98575824Y-120193923D01*
X98794750Y-119666691D01*
X98795248Y-119095813D01*
X98577243Y-118568200D01*
X98173923Y-118164176D01*
X97646691Y-117945250D01*
X97075813Y-117944752D01*
X96548200Y-118162757D01*
X96144176Y-118566077D01*
X95925250Y-119093309D01*
X95924752Y-119664187D01*
X92924453Y-119664187D01*
X92975000Y-119410072D01*
X92975000Y-119349928D01*
X92858155Y-118762509D01*
X92525409Y-118264519D01*
X92027419Y-117931773D01*
X91440000Y-117814928D01*
X90852581Y-117931773D01*
X90354591Y-118264519D01*
X90021845Y-118762509D01*
X89905000Y-119349928D01*
X82636030Y-119349928D01*
X82636030Y-116012619D01*
X82854613Y-116012619D01*
X83194155Y-116834372D01*
X83822321Y-117463636D01*
X84643481Y-117804611D01*
X85532619Y-117805387D01*
X86354372Y-117465845D01*
X86983636Y-116837679D01*
X87324611Y-116016519D01*
X87325387Y-115127381D01*
X86985845Y-114305628D01*
X86357679Y-113676364D01*
X85536519Y-113335389D01*
X84647381Y-113334613D01*
X83825628Y-113674155D01*
X83196364Y-114302321D01*
X82855389Y-115123481D01*
X82854613Y-116012619D01*
X82636030Y-116012619D01*
X82636030Y-102022815D01*
X104125530Y-102022815D01*
X104449880Y-102807800D01*
X105049941Y-103408909D01*
X105834359Y-103734628D01*
X106683715Y-103735370D01*
X107468700Y-103411020D01*
X108069809Y-102810959D01*
X108395528Y-102026541D01*
X108396270Y-101177185D01*
X108071920Y-100392200D01*
X107979881Y-100300000D01*
X110212560Y-100300000D01*
X110212560Y-102900000D01*
X110256838Y-103135317D01*
X110395910Y-103351441D01*
X110608110Y-103496431D01*
X110860000Y-103547440D01*
X112660000Y-103547440D01*
X112895317Y-103503162D01*
X113111441Y-103364090D01*
X113256431Y-103151890D01*
X113256541Y-103151348D01*
X113712581Y-103456064D01*
X114300000Y-103572909D01*
X114887419Y-103456064D01*
X115385409Y-103123318D01*
X115570000Y-102847058D01*
X115754591Y-103123318D01*
X116252581Y-103456064D01*
X116840000Y-103572909D01*
X117427419Y-103456064D01*
X117925409Y-103123318D01*
X118110000Y-102847058D01*
X118294591Y-103123318D01*
X118792581Y-103456064D01*
X119380000Y-103572909D01*
X119967419Y-103456064D01*
X120465409Y-103123318D01*
X120650000Y-102847058D01*
X120834591Y-103123318D01*
X121332581Y-103456064D01*
X121920000Y-103572909D01*
X122507419Y-103456064D01*
X123005409Y-103123318D01*
X123190000Y-102847058D01*
X123374591Y-103123318D01*
X123872581Y-103456064D01*
X124460000Y-103572909D01*
X125047419Y-103456064D01*
X125545409Y-103123318D01*
X125730000Y-102847058D01*
X125914591Y-103123318D01*
X126412581Y-103456064D01*
X127000000Y-103572909D01*
X127587419Y-103456064D01*
X128085409Y-103123318D01*
X128270000Y-102847058D01*
X128454591Y-103123318D01*
X128952581Y-103456064D01*
X129540000Y-103572909D01*
X130127419Y-103456064D01*
X130625409Y-103123318D01*
X130810000Y-102847058D01*
X130994591Y-103123318D01*
X131492581Y-103456064D01*
X132080000Y-103572909D01*
X132667419Y-103456064D01*
X133165409Y-103123318D01*
X133350000Y-102847058D01*
X133534591Y-103123318D01*
X134032581Y-103456064D01*
X134620000Y-103572909D01*
X135207419Y-103456064D01*
X135705409Y-103123318D01*
X135890000Y-102847058D01*
X136074591Y-103123318D01*
X136572581Y-103456064D01*
X137160000Y-103572909D01*
X137747419Y-103456064D01*
X138245409Y-103123318D01*
X138430000Y-102847058D01*
X138614591Y-103123318D01*
X139112581Y-103456064D01*
X139700000Y-103572909D01*
X140287419Y-103456064D01*
X140785409Y-103123318D01*
X140970000Y-102847058D01*
X141154591Y-103123318D01*
X141652581Y-103456064D01*
X142240000Y-103572909D01*
X142827419Y-103456064D01*
X143325409Y-103123318D01*
X143510000Y-102847058D01*
X143694591Y-103123318D01*
X144192581Y-103456064D01*
X144780000Y-103572909D01*
X145367419Y-103456064D01*
X145865409Y-103123318D01*
X146050000Y-102847058D01*
X146234591Y-103123318D01*
X146732581Y-103456064D01*
X147320000Y-103572909D01*
X147907419Y-103456064D01*
X148405409Y-103123318D01*
X148590000Y-102847058D01*
X148774591Y-103123318D01*
X149272581Y-103456064D01*
X149860000Y-103572909D01*
X150447419Y-103456064D01*
X150945409Y-103123318D01*
X151278155Y-102625328D01*
X151395000Y-102037909D01*
X151395000Y-102022815D01*
X179124630Y-102022815D01*
X179448980Y-102807800D01*
X180049041Y-103408909D01*
X180833459Y-103734628D01*
X181682815Y-103735370D01*
X182467800Y-103411020D01*
X183068909Y-102810959D01*
X183394628Y-102026541D01*
X183395370Y-101177185D01*
X183071020Y-100392200D01*
X182470959Y-99791091D01*
X181686541Y-99465372D01*
X180837185Y-99464630D01*
X180052200Y-99788980D01*
X179451091Y-100389041D01*
X179125372Y-101173459D01*
X179124630Y-102022815D01*
X151395000Y-102022815D01*
X151395000Y-101162091D01*
X151278155Y-100574672D01*
X150945409Y-100076682D01*
X150447419Y-99743936D01*
X149860000Y-99627091D01*
X149272581Y-99743936D01*
X148774591Y-100076682D01*
X148590000Y-100352942D01*
X148405409Y-100076682D01*
X147907419Y-99743936D01*
X147320000Y-99627091D01*
X146732581Y-99743936D01*
X146234591Y-100076682D01*
X146050000Y-100352942D01*
X145865409Y-100076682D01*
X145367419Y-99743936D01*
X144780000Y-99627091D01*
X144192581Y-99743936D01*
X143694591Y-100076682D01*
X143510000Y-100352942D01*
X143325409Y-100076682D01*
X142827419Y-99743936D01*
X142240000Y-99627091D01*
X141652581Y-99743936D01*
X141154591Y-100076682D01*
X140970000Y-100352942D01*
X140785409Y-100076682D01*
X140287419Y-99743936D01*
X139700000Y-99627091D01*
X139112581Y-99743936D01*
X138614591Y-100076682D01*
X138430000Y-100352942D01*
X138245409Y-100076682D01*
X137747419Y-99743936D01*
X137160000Y-99627091D01*
X136572581Y-99743936D01*
X136074591Y-100076682D01*
X135890000Y-100352942D01*
X135705409Y-100076682D01*
X135207419Y-99743936D01*
X134620000Y-99627091D01*
X134032581Y-99743936D01*
X133534591Y-100076682D01*
X133350000Y-100352942D01*
X133165409Y-100076682D01*
X132667419Y-99743936D01*
X132080000Y-99627091D01*
X131492581Y-99743936D01*
X130994591Y-100076682D01*
X130810000Y-100352942D01*
X130625409Y-100076682D01*
X130127419Y-99743936D01*
X129540000Y-99627091D01*
X128952581Y-99743936D01*
X128454591Y-100076682D01*
X128270000Y-100352942D01*
X128085409Y-100076682D01*
X127587419Y-99743936D01*
X127000000Y-99627091D01*
X126412581Y-99743936D01*
X125914591Y-100076682D01*
X125730000Y-100352942D01*
X125545409Y-100076682D01*
X125047419Y-99743936D01*
X124460000Y-99627091D01*
X123872581Y-99743936D01*
X123374591Y-100076682D01*
X123190000Y-100352942D01*
X123005409Y-100076682D01*
X122507419Y-99743936D01*
X121920000Y-99627091D01*
X121332581Y-99743936D01*
X120834591Y-100076682D01*
X120650000Y-100352942D01*
X120465409Y-100076682D01*
X119967419Y-99743936D01*
X119380000Y-99627091D01*
X118792581Y-99743936D01*
X118294591Y-100076682D01*
X118110000Y-100352942D01*
X117925409Y-100076682D01*
X117427419Y-99743936D01*
X116840000Y-99627091D01*
X116252581Y-99743936D01*
X115754591Y-100076682D01*
X115570000Y-100352942D01*
X115385409Y-100076682D01*
X114887419Y-99743936D01*
X114300000Y-99627091D01*
X113712581Y-99743936D01*
X113253957Y-100050378D01*
X113124090Y-99848559D01*
X112911890Y-99703569D01*
X112660000Y-99652560D01*
X110860000Y-99652560D01*
X110624683Y-99696838D01*
X110408559Y-99835910D01*
X110263569Y-100048110D01*
X110212560Y-100300000D01*
X107979881Y-100300000D01*
X107471859Y-99791091D01*
X106687441Y-99465372D01*
X105838085Y-99464630D01*
X105053100Y-99788980D01*
X104451991Y-100389041D01*
X104126272Y-101173459D01*
X104125530Y-102022815D01*
X82636030Y-102022815D01*
X82636030Y-97293846D01*
X115505000Y-97293846D01*
X115505000Y-97346154D01*
X115606621Y-97857036D01*
X115896012Y-98290142D01*
X116329118Y-98579533D01*
X116840000Y-98681154D01*
X117350882Y-98579533D01*
X117783988Y-98290142D01*
X118073379Y-97857036D01*
X118175000Y-97346154D01*
X118175000Y-97293846D01*
X118073379Y-96782964D01*
X117783988Y-96349858D01*
X117350882Y-96060467D01*
X116840000Y-95958846D01*
X116329118Y-96060467D01*
X115896012Y-96349858D01*
X115606621Y-96782964D01*
X115505000Y-97293846D01*
X82636030Y-97293846D01*
X82636030Y-94422815D01*
X93114630Y-94422815D01*
X93438980Y-95207800D01*
X94039041Y-95808909D01*
X94823459Y-96134628D01*
X95672815Y-96135370D01*
X96457800Y-95811020D01*
X97058909Y-95210959D01*
X97384628Y-94426541D01*
X97385370Y-93577185D01*
X97061020Y-92792200D01*
X96773705Y-92504383D01*
X115504769Y-92504383D01*
X115707582Y-92995229D01*
X116082796Y-93371098D01*
X116573287Y-93574768D01*
X117104383Y-93575231D01*
X117595229Y-93372418D01*
X117971098Y-92997204D01*
X118174768Y-92506713D01*
X118175231Y-91975617D01*
X117972418Y-91484771D01*
X117597204Y-91108902D01*
X117106713Y-90905232D01*
X116575617Y-90904769D01*
X116084771Y-91107582D01*
X115708902Y-91482796D01*
X115505232Y-91973287D01*
X115504769Y-92504383D01*
X96773705Y-92504383D01*
X96460959Y-92191091D01*
X95676541Y-91865372D01*
X94827185Y-91864630D01*
X94042200Y-92188980D01*
X93441091Y-92789041D01*
X93115372Y-93573459D01*
X93114630Y-94422815D01*
X82636030Y-94422815D01*
X82636030Y-87464187D01*
X113724752Y-87464187D01*
X113942757Y-87991800D01*
X114346077Y-88395824D01*
X114427931Y-88429813D01*
X114348200Y-88462757D01*
X113944176Y-88866077D01*
X113725250Y-89393309D01*
X113724752Y-89964187D01*
X113942757Y-90491800D01*
X114346077Y-90895824D01*
X114873309Y-91114750D01*
X115444187Y-91115248D01*
X115971800Y-90897243D01*
X116375824Y-90493923D01*
X116566885Y-90033795D01*
X117904716Y-90033795D01*
X118153106Y-90634943D01*
X118612637Y-91095278D01*
X119213352Y-91344716D01*
X119863795Y-91345284D01*
X120464943Y-91096894D01*
X120925278Y-90637363D01*
X121174716Y-90036648D01*
X121174718Y-90033795D01*
X124404716Y-90033795D01*
X124653106Y-90634943D01*
X125112637Y-91095278D01*
X125713352Y-91344716D01*
X126363795Y-91345284D01*
X126964943Y-91096894D01*
X127425278Y-90637363D01*
X127674716Y-90036648D01*
X127675027Y-89680000D01*
X135852560Y-89680000D01*
X135852560Y-91280000D01*
X135896838Y-91515317D01*
X136035910Y-91731441D01*
X136248110Y-91876431D01*
X136500000Y-91927440D01*
X138100000Y-91927440D01*
X138335317Y-91883162D01*
X138551441Y-91744090D01*
X138696431Y-91531890D01*
X138727815Y-91376911D01*
X138825302Y-91522811D01*
X139290849Y-91833880D01*
X139840000Y-91943113D01*
X140389151Y-91833880D01*
X140854698Y-91522811D01*
X141110000Y-91140725D01*
X141365302Y-91522811D01*
X141830849Y-91833880D01*
X142380000Y-91943113D01*
X142929151Y-91833880D01*
X143394698Y-91522811D01*
X143650000Y-91140725D01*
X143905302Y-91522811D01*
X144370849Y-91833880D01*
X144920000Y-91943113D01*
X145469151Y-91833880D01*
X145934698Y-91522811D01*
X146190000Y-91140725D01*
X146445302Y-91522811D01*
X146910849Y-91833880D01*
X147460000Y-91943113D01*
X148009151Y-91833880D01*
X148474698Y-91522811D01*
X148730000Y-91140725D01*
X148985302Y-91522811D01*
X149450849Y-91833880D01*
X150000000Y-91943113D01*
X150549151Y-91833880D01*
X151014698Y-91522811D01*
X151270000Y-91140725D01*
X151525302Y-91522811D01*
X151990849Y-91833880D01*
X152540000Y-91943113D01*
X153089151Y-91833880D01*
X153554698Y-91522811D01*
X153810000Y-91140725D01*
X154065302Y-91522811D01*
X154530849Y-91833880D01*
X155080000Y-91943113D01*
X155629151Y-91833880D01*
X156094698Y-91522811D01*
X156350000Y-91140725D01*
X156605302Y-91522811D01*
X157070849Y-91833880D01*
X157620000Y-91943113D01*
X158169151Y-91833880D01*
X158634698Y-91522811D01*
X158890000Y-91140725D01*
X159145302Y-91522811D01*
X159610849Y-91833880D01*
X160160000Y-91943113D01*
X160709151Y-91833880D01*
X161174698Y-91522811D01*
X161430000Y-91140725D01*
X161685302Y-91522811D01*
X162150849Y-91833880D01*
X162700000Y-91943113D01*
X163249151Y-91833880D01*
X163714698Y-91522811D01*
X163970000Y-91140725D01*
X164225302Y-91522811D01*
X164690849Y-91833880D01*
X165240000Y-91943113D01*
X165789151Y-91833880D01*
X166254698Y-91522811D01*
X166510000Y-91140725D01*
X166765302Y-91522811D01*
X167230849Y-91833880D01*
X167780000Y-91943113D01*
X168329151Y-91833880D01*
X168794698Y-91522811D01*
X169050000Y-91140725D01*
X169305302Y-91522811D01*
X169770849Y-91833880D01*
X170320000Y-91943113D01*
X170869151Y-91833880D01*
X171334698Y-91522811D01*
X171645767Y-91057264D01*
X171755000Y-90508113D01*
X171755000Y-90451887D01*
X171645767Y-89902736D01*
X171334698Y-89437189D01*
X170869151Y-89126120D01*
X170320000Y-89016887D01*
X169770849Y-89126120D01*
X169305302Y-89437189D01*
X169050000Y-89819275D01*
X168794698Y-89437189D01*
X168329151Y-89126120D01*
X167780000Y-89016887D01*
X167230849Y-89126120D01*
X166765302Y-89437189D01*
X166510000Y-89819275D01*
X166254698Y-89437189D01*
X165789151Y-89126120D01*
X165240000Y-89016887D01*
X164690849Y-89126120D01*
X164225302Y-89437189D01*
X163970000Y-89819275D01*
X163714698Y-89437189D01*
X163249151Y-89126120D01*
X162700000Y-89016887D01*
X162150849Y-89126120D01*
X161685302Y-89437189D01*
X161430000Y-89819275D01*
X161174698Y-89437189D01*
X160709151Y-89126120D01*
X160160000Y-89016887D01*
X159610849Y-89126120D01*
X159145302Y-89437189D01*
X158890000Y-89819275D01*
X158634698Y-89437189D01*
X158169151Y-89126120D01*
X157620000Y-89016887D01*
X157070849Y-89126120D01*
X156605302Y-89437189D01*
X156350000Y-89819275D01*
X156094698Y-89437189D01*
X155629151Y-89126120D01*
X155080000Y-89016887D01*
X154530849Y-89126120D01*
X154065302Y-89437189D01*
X153810000Y-89819275D01*
X153554698Y-89437189D01*
X153089151Y-89126120D01*
X152540000Y-89016887D01*
X151990849Y-89126120D01*
X151525302Y-89437189D01*
X151270000Y-89819275D01*
X151014698Y-89437189D01*
X150549151Y-89126120D01*
X150000000Y-89016887D01*
X149450849Y-89126120D01*
X148985302Y-89437189D01*
X148730000Y-89819275D01*
X148474698Y-89437189D01*
X148009151Y-89126120D01*
X147460000Y-89016887D01*
X146910849Y-89126120D01*
X146445302Y-89437189D01*
X146190000Y-89819275D01*
X145934698Y-89437189D01*
X145469151Y-89126120D01*
X144920000Y-89016887D01*
X144370849Y-89126120D01*
X143905302Y-89437189D01*
X143650000Y-89819275D01*
X143394698Y-89437189D01*
X142929151Y-89126120D01*
X142380000Y-89016887D01*
X141830849Y-89126120D01*
X141365302Y-89437189D01*
X141110000Y-89819275D01*
X140854698Y-89437189D01*
X140389151Y-89126120D01*
X139840000Y-89016887D01*
X139290849Y-89126120D01*
X138825302Y-89437189D01*
X138728899Y-89581465D01*
X138703162Y-89444683D01*
X138564090Y-89228559D01*
X138351890Y-89083569D01*
X138100000Y-89032560D01*
X136500000Y-89032560D01*
X136264683Y-89076838D01*
X136048559Y-89215910D01*
X135903569Y-89428110D01*
X135852560Y-89680000D01*
X127675027Y-89680000D01*
X127675284Y-89386205D01*
X127426894Y-88785057D01*
X126967363Y-88324722D01*
X126366648Y-88075284D01*
X125716205Y-88074716D01*
X125115057Y-88323106D01*
X124654722Y-88782637D01*
X124405284Y-89383352D01*
X124404716Y-90033795D01*
X121174718Y-90033795D01*
X121175284Y-89386205D01*
X120926894Y-88785057D01*
X120467363Y-88324722D01*
X119866648Y-88075284D01*
X119216205Y-88074716D01*
X118615057Y-88323106D01*
X118154722Y-88782637D01*
X117905284Y-89383352D01*
X117904716Y-90033795D01*
X116566885Y-90033795D01*
X116594750Y-89966691D01*
X116595248Y-89395813D01*
X116377243Y-88868200D01*
X115973923Y-88464176D01*
X115892069Y-88430187D01*
X115971800Y-88397243D01*
X116375824Y-87993923D01*
X116594750Y-87466691D01*
X116595248Y-86895813D01*
X116377243Y-86368200D01*
X115973923Y-85964176D01*
X115446691Y-85745250D01*
X114875813Y-85744752D01*
X114348200Y-85962757D01*
X113944176Y-86366077D01*
X113725250Y-86893309D01*
X113724752Y-87464187D01*
X82636030Y-87464187D01*
X82636030Y-85533795D01*
X117904716Y-85533795D01*
X118153106Y-86134943D01*
X118612637Y-86595278D01*
X119213352Y-86844716D01*
X119863795Y-86845284D01*
X120464943Y-86596894D01*
X120925278Y-86137363D01*
X121174716Y-85536648D01*
X121174718Y-85533795D01*
X124404716Y-85533795D01*
X124653106Y-86134943D01*
X125112637Y-86595278D01*
X125713352Y-86844716D01*
X126363795Y-86845284D01*
X126964943Y-86596894D01*
X127425278Y-86137363D01*
X127674716Y-85536648D01*
X127675068Y-85133221D01*
X173019846Y-85133221D01*
X173230255Y-85642451D01*
X173619522Y-86032397D01*
X174128384Y-86243695D01*
X174679371Y-86244176D01*
X175188601Y-86033767D01*
X175578547Y-85644500D01*
X175765533Y-85194187D01*
X178124752Y-85194187D01*
X178342757Y-85721800D01*
X178746077Y-86125824D01*
X179273309Y-86344750D01*
X179844187Y-86345248D01*
X180371800Y-86127243D01*
X180775824Y-85723923D01*
X180809813Y-85642069D01*
X180842757Y-85721800D01*
X181246077Y-86125824D01*
X181773309Y-86344750D01*
X182344187Y-86345248D01*
X182871800Y-86127243D01*
X183275824Y-85723923D01*
X183494750Y-85196691D01*
X183495248Y-84625813D01*
X183277243Y-84098200D01*
X182873923Y-83694176D01*
X182346691Y-83475250D01*
X181775813Y-83474752D01*
X181248200Y-83692757D01*
X180844176Y-84096077D01*
X180810187Y-84177931D01*
X180777243Y-84098200D01*
X180373923Y-83694176D01*
X179846691Y-83475250D01*
X179275813Y-83474752D01*
X178748200Y-83692757D01*
X178344176Y-84096077D01*
X178125250Y-84623309D01*
X178124752Y-85194187D01*
X175765533Y-85194187D01*
X175789845Y-85135638D01*
X175790326Y-84584651D01*
X175579917Y-84075421D01*
X175190650Y-83685475D01*
X174681788Y-83474177D01*
X174130801Y-83473696D01*
X173621571Y-83684105D01*
X173231625Y-84073372D01*
X173020327Y-84582234D01*
X173019846Y-85133221D01*
X127675068Y-85133221D01*
X127675284Y-84886205D01*
X127426894Y-84285057D01*
X126967363Y-83824722D01*
X126366648Y-83575284D01*
X125716205Y-83574716D01*
X125115057Y-83823106D01*
X124654722Y-84282637D01*
X124405284Y-84883352D01*
X124404716Y-85533795D01*
X121174718Y-85533795D01*
X121175284Y-84886205D01*
X120926894Y-84285057D01*
X120467363Y-83824722D01*
X119866648Y-83575284D01*
X119216205Y-83574716D01*
X118615057Y-83823106D01*
X118154722Y-84282637D01*
X117905284Y-84883352D01*
X117904716Y-85533795D01*
X82636030Y-85533795D01*
X82636030Y-72010000D01*
X93102560Y-72010000D01*
X93102560Y-75010000D01*
X93146838Y-75245317D01*
X93285910Y-75461441D01*
X93498110Y-75606431D01*
X93750000Y-75657440D01*
X96750000Y-75657440D01*
X96985317Y-75613162D01*
X97201441Y-75474090D01*
X97346431Y-75261890D01*
X97397440Y-75010000D01*
X97397440Y-73594775D01*
X109374803Y-73594775D01*
X109547233Y-74012086D01*
X109854867Y-74320257D01*
X109548355Y-74626235D01*
X109375197Y-75043244D01*
X109374803Y-75494775D01*
X109547233Y-75912086D01*
X109866235Y-76231645D01*
X110283244Y-76404803D01*
X110734775Y-76405197D01*
X111152086Y-76232767D01*
X111471645Y-75913765D01*
X111585322Y-75640000D01*
X115406887Y-75640000D01*
X115516120Y-76189151D01*
X115827189Y-76654698D01*
X116209275Y-76910000D01*
X115827189Y-77165302D01*
X115516120Y-77630849D01*
X115406887Y-78180000D01*
X115516120Y-78729151D01*
X115827189Y-79194698D01*
X116209275Y-79450000D01*
X115827189Y-79705302D01*
X115516120Y-80170849D01*
X115406887Y-80720000D01*
X115516120Y-81269151D01*
X115827189Y-81734698D01*
X116292736Y-82045767D01*
X116841887Y-82155000D01*
X116898113Y-82155000D01*
X117447264Y-82045767D01*
X117912811Y-81734698D01*
X118223880Y-81269151D01*
X118333113Y-80720000D01*
X118223880Y-80170849D01*
X117912811Y-79705302D01*
X117530725Y-79450000D01*
X117912811Y-79194698D01*
X118223880Y-78729151D01*
X118333113Y-78180000D01*
X118223880Y-77630849D01*
X117912811Y-77165302D01*
X117530725Y-76910000D01*
X117912811Y-76654698D01*
X118223880Y-76189151D01*
X118333113Y-75640000D01*
X118223880Y-75090849D01*
X117912811Y-74625302D01*
X117768535Y-74528899D01*
X117905317Y-74503162D01*
X118121441Y-74364090D01*
X118266431Y-74151890D01*
X118317440Y-73900000D01*
X118317440Y-73100000D01*
X123026887Y-73100000D01*
X123136120Y-73649151D01*
X123447189Y-74114698D01*
X123829275Y-74370000D01*
X123447189Y-74625302D01*
X123136120Y-75090849D01*
X123026887Y-75640000D01*
X123136120Y-76189151D01*
X123447189Y-76654698D01*
X123829275Y-76910000D01*
X123447189Y-77165302D01*
X123136120Y-77630849D01*
X123026887Y-78180000D01*
X123136120Y-78729151D01*
X123447189Y-79194698D01*
X123829275Y-79450000D01*
X123447189Y-79705302D01*
X123136120Y-80170849D01*
X123026887Y-80720000D01*
X123136120Y-81269151D01*
X123447189Y-81734698D01*
X123912736Y-82045767D01*
X124461887Y-82155000D01*
X124518113Y-82155000D01*
X125067264Y-82045767D01*
X125532811Y-81734698D01*
X125843880Y-81269151D01*
X125953113Y-80720000D01*
X125860265Y-80253221D01*
X173019846Y-80253221D01*
X173230255Y-80762451D01*
X173619522Y-81152397D01*
X174128384Y-81363695D01*
X174679371Y-81364176D01*
X175188601Y-81153767D01*
X175578547Y-80764500D01*
X175789845Y-80255638D01*
X175789872Y-80224187D01*
X177984752Y-80224187D01*
X178202757Y-80751800D01*
X178606077Y-81155824D01*
X179133309Y-81374750D01*
X179704187Y-81375248D01*
X180231800Y-81157243D01*
X180635824Y-80753923D01*
X180669813Y-80672069D01*
X180702757Y-80751800D01*
X181106077Y-81155824D01*
X181633309Y-81374750D01*
X182204187Y-81375248D01*
X182731800Y-81157243D01*
X183135824Y-80753923D01*
X183354750Y-80226691D01*
X183355248Y-79655813D01*
X183137243Y-79128200D01*
X182733923Y-78724176D01*
X182206691Y-78505250D01*
X181635813Y-78504752D01*
X181108200Y-78722757D01*
X180704176Y-79126077D01*
X180670187Y-79207931D01*
X180637243Y-79128200D01*
X180233923Y-78724176D01*
X179706691Y-78505250D01*
X179135813Y-78504752D01*
X178608200Y-78722757D01*
X178204176Y-79126077D01*
X177985250Y-79653309D01*
X177984752Y-80224187D01*
X175789872Y-80224187D01*
X175790326Y-79704651D01*
X175579917Y-79195421D01*
X175190650Y-78805475D01*
X174681788Y-78594177D01*
X174130801Y-78593696D01*
X173621571Y-78804105D01*
X173231625Y-79193372D01*
X173020327Y-79702234D01*
X173019846Y-80253221D01*
X125860265Y-80253221D01*
X125843880Y-80170849D01*
X125532811Y-79705302D01*
X125150725Y-79450000D01*
X125532811Y-79194698D01*
X125843880Y-78729151D01*
X125953113Y-78180000D01*
X125843880Y-77630849D01*
X125532811Y-77165302D01*
X125150725Y-76910000D01*
X125532811Y-76654698D01*
X125843880Y-76189151D01*
X125953113Y-75640000D01*
X125867956Y-75211887D01*
X135865000Y-75211887D01*
X135865000Y-75268113D01*
X135974233Y-75817264D01*
X136285302Y-76282811D01*
X136750849Y-76593880D01*
X137300000Y-76703113D01*
X137849151Y-76593880D01*
X138314698Y-76282811D01*
X138570000Y-75900725D01*
X138825302Y-76282811D01*
X139290849Y-76593880D01*
X139840000Y-76703113D01*
X140389151Y-76593880D01*
X140854698Y-76282811D01*
X141110000Y-75900725D01*
X141365302Y-76282811D01*
X141830849Y-76593880D01*
X142380000Y-76703113D01*
X142929151Y-76593880D01*
X143394698Y-76282811D01*
X143650000Y-75900725D01*
X143905302Y-76282811D01*
X144370849Y-76593880D01*
X144920000Y-76703113D01*
X145469151Y-76593880D01*
X145934698Y-76282811D01*
X146190000Y-75900725D01*
X146445302Y-76282811D01*
X146910849Y-76593880D01*
X147460000Y-76703113D01*
X148009151Y-76593880D01*
X148474698Y-76282811D01*
X148730000Y-75900725D01*
X148985302Y-76282811D01*
X149450849Y-76593880D01*
X150000000Y-76703113D01*
X150549151Y-76593880D01*
X151014698Y-76282811D01*
X151270000Y-75900725D01*
X151525302Y-76282811D01*
X151990849Y-76593880D01*
X152540000Y-76703113D01*
X153089151Y-76593880D01*
X153554698Y-76282811D01*
X153810000Y-75900725D01*
X154065302Y-76282811D01*
X154530849Y-76593880D01*
X155080000Y-76703113D01*
X155629151Y-76593880D01*
X156094698Y-76282811D01*
X156350000Y-75900725D01*
X156605302Y-76282811D01*
X157070849Y-76593880D01*
X157620000Y-76703113D01*
X158169151Y-76593880D01*
X158634698Y-76282811D01*
X158890000Y-75900725D01*
X159145302Y-76282811D01*
X159610849Y-76593880D01*
X160160000Y-76703113D01*
X160709151Y-76593880D01*
X161174698Y-76282811D01*
X161430000Y-75900725D01*
X161685302Y-76282811D01*
X162150849Y-76593880D01*
X162700000Y-76703113D01*
X163249151Y-76593880D01*
X163714698Y-76282811D01*
X163970000Y-75900725D01*
X164225302Y-76282811D01*
X164690849Y-76593880D01*
X165240000Y-76703113D01*
X165789151Y-76593880D01*
X166254698Y-76282811D01*
X166510000Y-75900725D01*
X166765302Y-76282811D01*
X167230849Y-76593880D01*
X167780000Y-76703113D01*
X168329151Y-76593880D01*
X168794698Y-76282811D01*
X169050000Y-75900725D01*
X169305302Y-76282811D01*
X169770849Y-76593880D01*
X170320000Y-76703113D01*
X170869151Y-76593880D01*
X171334698Y-76282811D01*
X171645767Y-75817264D01*
X171755000Y-75268113D01*
X171755000Y-75211887D01*
X171645767Y-74662736D01*
X171334698Y-74197189D01*
X170869151Y-73886120D01*
X170320000Y-73776887D01*
X169770849Y-73886120D01*
X169305302Y-74197189D01*
X169050000Y-74579275D01*
X168794698Y-74197189D01*
X168329151Y-73886120D01*
X167780000Y-73776887D01*
X167230849Y-73886120D01*
X166765302Y-74197189D01*
X166510000Y-74579275D01*
X166254698Y-74197189D01*
X165789151Y-73886120D01*
X165240000Y-73776887D01*
X164690849Y-73886120D01*
X164225302Y-74197189D01*
X163970000Y-74579275D01*
X163714698Y-74197189D01*
X163249151Y-73886120D01*
X162700000Y-73776887D01*
X162150849Y-73886120D01*
X161685302Y-74197189D01*
X161430000Y-74579275D01*
X161174698Y-74197189D01*
X160709151Y-73886120D01*
X160160000Y-73776887D01*
X159610849Y-73886120D01*
X159145302Y-74197189D01*
X158890000Y-74579275D01*
X158634698Y-74197189D01*
X158169151Y-73886120D01*
X157620000Y-73776887D01*
X157070849Y-73886120D01*
X156605302Y-74197189D01*
X156350000Y-74579275D01*
X156094698Y-74197189D01*
X155629151Y-73886120D01*
X155080000Y-73776887D01*
X154530849Y-73886120D01*
X154065302Y-74197189D01*
X153810000Y-74579275D01*
X153554698Y-74197189D01*
X153089151Y-73886120D01*
X152540000Y-73776887D01*
X151990849Y-73886120D01*
X151525302Y-74197189D01*
X151270000Y-74579275D01*
X151014698Y-74197189D01*
X150549151Y-73886120D01*
X150000000Y-73776887D01*
X149450849Y-73886120D01*
X148985302Y-74197189D01*
X148730000Y-74579275D01*
X148474698Y-74197189D01*
X148009151Y-73886120D01*
X147460000Y-73776887D01*
X146910849Y-73886120D01*
X146445302Y-74197189D01*
X146190000Y-74579275D01*
X145934698Y-74197189D01*
X145469151Y-73886120D01*
X144920000Y-73776887D01*
X144370849Y-73886120D01*
X143905302Y-74197189D01*
X143650000Y-74579275D01*
X143394698Y-74197189D01*
X142929151Y-73886120D01*
X142380000Y-73776887D01*
X141830849Y-73886120D01*
X141365302Y-74197189D01*
X141110000Y-74579275D01*
X140854698Y-74197189D01*
X140389151Y-73886120D01*
X139840000Y-73776887D01*
X139290849Y-73886120D01*
X138825302Y-74197189D01*
X138570000Y-74579275D01*
X138314698Y-74197189D01*
X137849151Y-73886120D01*
X137300000Y-73776887D01*
X136750849Y-73886120D01*
X136285302Y-74197189D01*
X135974233Y-74662736D01*
X135865000Y-75211887D01*
X125867956Y-75211887D01*
X125843880Y-75090849D01*
X125532811Y-74625302D01*
X125150725Y-74370000D01*
X125532811Y-74114698D01*
X125843880Y-73649151D01*
X125953113Y-73100000D01*
X125843880Y-72550849D01*
X125532811Y-72085302D01*
X125067264Y-71774233D01*
X124518113Y-71665000D01*
X124461887Y-71665000D01*
X123912736Y-71774233D01*
X123447189Y-72085302D01*
X123136120Y-72550849D01*
X123026887Y-73100000D01*
X118317440Y-73100000D01*
X118317440Y-72300000D01*
X118273162Y-72064683D01*
X118134090Y-71848559D01*
X117921890Y-71703569D01*
X117670000Y-71652560D01*
X116070000Y-71652560D01*
X115834683Y-71696838D01*
X115618559Y-71835910D01*
X115473569Y-72048110D01*
X115422560Y-72300000D01*
X115422560Y-73900000D01*
X115466838Y-74135317D01*
X115605910Y-74351441D01*
X115818110Y-74496431D01*
X115973089Y-74527815D01*
X115827189Y-74625302D01*
X115516120Y-75090849D01*
X115406887Y-75640000D01*
X111585322Y-75640000D01*
X111644803Y-75496756D01*
X111645197Y-75045225D01*
X111472767Y-74627914D01*
X111165133Y-74319743D01*
X111471645Y-74013765D01*
X111644803Y-73596756D01*
X111645197Y-73145225D01*
X111472767Y-72727914D01*
X111153765Y-72408355D01*
X110736756Y-72235197D01*
X110285225Y-72234803D01*
X109867914Y-72407233D01*
X109548355Y-72726235D01*
X109375197Y-73143244D01*
X109374803Y-73594775D01*
X97397440Y-73594775D01*
X97397440Y-72010000D01*
X97353162Y-71774683D01*
X97214090Y-71558559D01*
X97001890Y-71413569D01*
X96750000Y-71362560D01*
X93750000Y-71362560D01*
X93514683Y-71406838D01*
X93298559Y-71545910D01*
X93153569Y-71758110D01*
X93102560Y-72010000D01*
X82636030Y-72010000D01*
X82636030Y-69977000D01*
X183982030Y-69977000D01*
X183982030Y-133223000D01*
X183982030Y-133223000D01*
G37*
X183982030Y-133223000D02*
X183312822Y-133223000D01*
X183394108Y-133027241D01*
X183394850Y-132177885D01*
X183070500Y-131392900D01*
X182470439Y-130791791D01*
X181686021Y-130466072D01*
X180836665Y-130465330D01*
X180051680Y-130789680D01*
X179450571Y-131389741D01*
X179124852Y-132174159D01*
X179124110Y-133023515D01*
X179206536Y-133223000D01*
X108314242Y-133223000D01*
X108395528Y-133027241D01*
X108396270Y-132177885D01*
X108071920Y-131392900D01*
X107471859Y-130791791D01*
X106687441Y-130466072D01*
X105838085Y-130465330D01*
X105053100Y-130789680D01*
X104451991Y-131389741D01*
X104126272Y-132174159D01*
X104125530Y-133023515D01*
X104207956Y-133223000D01*
X82636030Y-133223000D01*
X82636030Y-128586202D01*
X83683403Y-128586202D01*
X83855390Y-128915360D01*
X84682346Y-129242026D01*
X85571363Y-129227365D01*
X86324610Y-128915360D01*
X86496597Y-128586202D01*
X85090000Y-127179605D01*
X83683403Y-128586202D01*
X82636030Y-128586202D01*
X82636030Y-126592346D01*
X82847974Y-126592346D01*
X82862635Y-127481363D01*
X83174640Y-128234610D01*
X83503798Y-128406597D01*
X84910395Y-127000000D01*
X85269605Y-127000000D01*
X86676202Y-128406597D01*
X87005360Y-128234610D01*
X87332026Y-127407654D01*
X87329661Y-127264187D01*
X95964752Y-127264187D01*
X96182757Y-127791800D01*
X96586077Y-128195824D01*
X97113309Y-128414750D01*
X97684187Y-128415248D01*
X98211800Y-128197243D01*
X98615824Y-127793923D01*
X98834750Y-127266691D01*
X98835248Y-126695813D01*
X98617243Y-126168200D01*
X98213923Y-125764176D01*
X98147456Y-125736577D01*
X98154005Y-125733864D01*
X98228139Y-125487745D01*
X97400000Y-124659605D01*
X96571861Y-125487745D01*
X96645995Y-125733864D01*
X96652483Y-125736196D01*
X96588200Y-125762757D01*
X96184176Y-126166077D01*
X95965250Y-126693309D01*
X95964752Y-127264187D01*
X87329661Y-127264187D01*
X87317365Y-126518637D01*
X87005360Y-125765390D01*
X86676202Y-125593403D01*
X85269605Y-127000000D01*
X84910395Y-127000000D01*
X83503798Y-125593403D01*
X83174640Y-125765390D01*
X82847974Y-126592346D01*
X82636030Y-126592346D01*
X82636030Y-125413798D01*
X83683403Y-125413798D01*
X85090000Y-126820395D01*
X86496597Y-125413798D01*
X86324610Y-125084640D01*
X85497654Y-124757974D01*
X84608637Y-124772635D01*
X83855390Y-125084640D01*
X83683403Y-125413798D01*
X82636030Y-125413798D01*
X82636030Y-124745750D01*
X89905000Y-124745750D01*
X89905000Y-125486309D01*
X90001673Y-125719698D01*
X90180301Y-125898327D01*
X90413690Y-125995000D01*
X91154250Y-125995000D01*
X91313000Y-125836250D01*
X91313000Y-124587000D01*
X91567000Y-124587000D01*
X91567000Y-125836250D01*
X91725750Y-125995000D01*
X92466310Y-125995000D01*
X92699699Y-125898327D01*
X92878327Y-125719698D01*
X92975000Y-125486309D01*
X92975000Y-124745750D01*
X92816250Y-124587000D01*
X91567000Y-124587000D01*
X91313000Y-124587000D01*
X90063750Y-124587000D01*
X89905000Y-124745750D01*
X82636030Y-124745750D01*
X82636030Y-119349928D01*
X89905000Y-119349928D01*
X89905000Y-119410072D01*
X90021845Y-119997491D01*
X90354591Y-120495481D01*
X90585845Y-120650000D01*
X90354591Y-120804519D01*
X90021845Y-121302509D01*
X89905000Y-121889928D01*
X89905000Y-121950072D01*
X90021845Y-122537491D01*
X90309583Y-122968122D01*
X90180301Y-123021673D01*
X90001673Y-123200302D01*
X89905000Y-123433691D01*
X89905000Y-124174250D01*
X90063750Y-124333000D01*
X91313000Y-124333000D01*
X91313000Y-124313000D01*
X91567000Y-124313000D01*
X91567000Y-124333000D01*
X92816250Y-124333000D01*
X92886027Y-124263223D01*
X95953035Y-124263223D01*
X95980222Y-124833454D01*
X96146136Y-125234005D01*
X96392255Y-125308139D01*
X97220395Y-124480000D01*
X97579605Y-124480000D01*
X98407745Y-125308139D01*
X98653864Y-125234005D01*
X98846965Y-124696777D01*
X98819778Y-124126546D01*
X98653864Y-123725995D01*
X98407745Y-123651861D01*
X97579605Y-124480000D01*
X97220395Y-124480000D01*
X96392255Y-123651861D01*
X96146136Y-123725995D01*
X95953035Y-124263223D01*
X92886027Y-124263223D01*
X92975000Y-124174250D01*
X92975000Y-123433691D01*
X92878327Y-123200302D01*
X92699699Y-123021673D01*
X92570417Y-122968122D01*
X92858155Y-122537491D01*
X92975000Y-121950072D01*
X92975000Y-121889928D01*
X92858155Y-121302509D01*
X92525409Y-120804519D01*
X92294155Y-120650000D01*
X92525409Y-120495481D01*
X92858155Y-119997491D01*
X92924453Y-119664187D01*
X95924752Y-119664187D01*
X96142757Y-120191800D01*
X96546077Y-120595824D01*
X96627931Y-120629813D01*
X96548200Y-120662757D01*
X96144176Y-121066077D01*
X95925250Y-121593309D01*
X95924752Y-122164187D01*
X96142757Y-122691800D01*
X96546077Y-123095824D01*
X96753081Y-123181780D01*
X96645995Y-123226136D01*
X96571861Y-123472255D01*
X97400000Y-124300395D01*
X98228139Y-123472255D01*
X98154005Y-123226136D01*
X97996698Y-123169594D01*
X98171800Y-123097243D01*
X98575824Y-122693923D01*
X98794750Y-122166691D01*
X98795248Y-121595813D01*
X98577243Y-121068200D01*
X98173923Y-120664176D01*
X98092069Y-120630187D01*
X98171800Y-120597243D01*
X98575824Y-120193923D01*
X98794750Y-119666691D01*
X98795248Y-119095813D01*
X98577243Y-118568200D01*
X98173923Y-118164176D01*
X97646691Y-117945250D01*
X97075813Y-117944752D01*
X96548200Y-118162757D01*
X96144176Y-118566077D01*
X95925250Y-119093309D01*
X95924752Y-119664187D01*
X92924453Y-119664187D01*
X92975000Y-119410072D01*
X92975000Y-119349928D01*
X92858155Y-118762509D01*
X92525409Y-118264519D01*
X92027419Y-117931773D01*
X91440000Y-117814928D01*
X90852581Y-117931773D01*
X90354591Y-118264519D01*
X90021845Y-118762509D01*
X89905000Y-119349928D01*
X82636030Y-119349928D01*
X82636030Y-116012619D01*
X82854613Y-116012619D01*
X83194155Y-116834372D01*
X83822321Y-117463636D01*
X84643481Y-117804611D01*
X85532619Y-117805387D01*
X86354372Y-117465845D01*
X86983636Y-116837679D01*
X87324611Y-116016519D01*
X87325387Y-115127381D01*
X86985845Y-114305628D01*
X86357679Y-113676364D01*
X85536519Y-113335389D01*
X84647381Y-113334613D01*
X83825628Y-113674155D01*
X83196364Y-114302321D01*
X82855389Y-115123481D01*
X82854613Y-116012619D01*
X82636030Y-116012619D01*
X82636030Y-102022815D01*
X104125530Y-102022815D01*
X104449880Y-102807800D01*
X105049941Y-103408909D01*
X105834359Y-103734628D01*
X106683715Y-103735370D01*
X107468700Y-103411020D01*
X108069809Y-102810959D01*
X108395528Y-102026541D01*
X108396270Y-101177185D01*
X108071920Y-100392200D01*
X107979881Y-100300000D01*
X110212560Y-100300000D01*
X110212560Y-102900000D01*
X110256838Y-103135317D01*
X110395910Y-103351441D01*
X110608110Y-103496431D01*
X110860000Y-103547440D01*
X112660000Y-103547440D01*
X112895317Y-103503162D01*
X113111441Y-103364090D01*
X113256431Y-103151890D01*
X113256541Y-103151348D01*
X113712581Y-103456064D01*
X114300000Y-103572909D01*
X114887419Y-103456064D01*
X115385409Y-103123318D01*
X115570000Y-102847058D01*
X115754591Y-103123318D01*
X116252581Y-103456064D01*
X116840000Y-103572909D01*
X117427419Y-103456064D01*
X117925409Y-103123318D01*
X118110000Y-102847058D01*
X118294591Y-103123318D01*
X118792581Y-103456064D01*
X119380000Y-103572909D01*
X119967419Y-103456064D01*
X120465409Y-103123318D01*
X120650000Y-102847058D01*
X120834591Y-103123318D01*
X121332581Y-103456064D01*
X121920000Y-103572909D01*
X122507419Y-103456064D01*
X123005409Y-103123318D01*
X123190000Y-102847058D01*
X123374591Y-103123318D01*
X123872581Y-103456064D01*
X124460000Y-103572909D01*
X125047419Y-103456064D01*
X125545409Y-103123318D01*
X125730000Y-102847058D01*
X125914591Y-103123318D01*
X126412581Y-103456064D01*
X127000000Y-103572909D01*
X127587419Y-103456064D01*
X128085409Y-103123318D01*
X128270000Y-102847058D01*
X128454591Y-103123318D01*
X128952581Y-103456064D01*
X129540000Y-103572909D01*
X130127419Y-103456064D01*
X130625409Y-103123318D01*
X130810000Y-102847058D01*
X130994591Y-103123318D01*
X131492581Y-103456064D01*
X132080000Y-103572909D01*
X132667419Y-103456064D01*
X133165409Y-103123318D01*
X133350000Y-102847058D01*
X133534591Y-103123318D01*
X134032581Y-103456064D01*
X134620000Y-103572909D01*
X135207419Y-103456064D01*
X135705409Y-103123318D01*
X135890000Y-102847058D01*
X136074591Y-103123318D01*
X136572581Y-103456064D01*
X137160000Y-103572909D01*
X137747419Y-103456064D01*
X138245409Y-103123318D01*
X138430000Y-102847058D01*
X138614591Y-103123318D01*
X139112581Y-103456064D01*
X139700000Y-103572909D01*
X140287419Y-103456064D01*
X140785409Y-103123318D01*
X140970000Y-102847058D01*
X141154591Y-103123318D01*
X141652581Y-103456064D01*
X142240000Y-103572909D01*
X142827419Y-103456064D01*
X143325409Y-103123318D01*
X143510000Y-102847058D01*
X143694591Y-103123318D01*
X144192581Y-103456064D01*
X144780000Y-103572909D01*
X145367419Y-103456064D01*
X145865409Y-103123318D01*
X146050000Y-102847058D01*
X146234591Y-103123318D01*
X146732581Y-103456064D01*
X147320000Y-103572909D01*
X147907419Y-103456064D01*
X148405409Y-103123318D01*
X148590000Y-102847058D01*
X148774591Y-103123318D01*
X149272581Y-103456064D01*
X149860000Y-103572909D01*
X150447419Y-103456064D01*
X150945409Y-103123318D01*
X151278155Y-102625328D01*
X151395000Y-102037909D01*
X151395000Y-102022815D01*
X179124630Y-102022815D01*
X179448980Y-102807800D01*
X180049041Y-103408909D01*
X180833459Y-103734628D01*
X181682815Y-103735370D01*
X182467800Y-103411020D01*
X183068909Y-102810959D01*
X183394628Y-102026541D01*
X183395370Y-101177185D01*
X183071020Y-100392200D01*
X182470959Y-99791091D01*
X181686541Y-99465372D01*
X180837185Y-99464630D01*
X180052200Y-99788980D01*
X179451091Y-100389041D01*
X179125372Y-101173459D01*
X179124630Y-102022815D01*
X151395000Y-102022815D01*
X151395000Y-101162091D01*
X151278155Y-100574672D01*
X150945409Y-100076682D01*
X150447419Y-99743936D01*
X149860000Y-99627091D01*
X149272581Y-99743936D01*
X148774591Y-100076682D01*
X148590000Y-100352942D01*
X148405409Y-100076682D01*
X147907419Y-99743936D01*
X147320000Y-99627091D01*
X146732581Y-99743936D01*
X146234591Y-100076682D01*
X146050000Y-100352942D01*
X145865409Y-100076682D01*
X145367419Y-99743936D01*
X144780000Y-99627091D01*
X144192581Y-99743936D01*
X143694591Y-100076682D01*
X143510000Y-100352942D01*
X143325409Y-100076682D01*
X142827419Y-99743936D01*
X142240000Y-99627091D01*
X141652581Y-99743936D01*
X141154591Y-100076682D01*
X140970000Y-100352942D01*
X140785409Y-100076682D01*
X140287419Y-99743936D01*
X139700000Y-99627091D01*
X139112581Y-99743936D01*
X138614591Y-100076682D01*
X138430000Y-100352942D01*
X138245409Y-100076682D01*
X137747419Y-99743936D01*
X137160000Y-99627091D01*
X136572581Y-99743936D01*
X136074591Y-100076682D01*
X135890000Y-100352942D01*
X135705409Y-100076682D01*
X135207419Y-99743936D01*
X134620000Y-99627091D01*
X134032581Y-99743936D01*
X133534591Y-100076682D01*
X133350000Y-100352942D01*
X133165409Y-100076682D01*
X132667419Y-99743936D01*
X132080000Y-99627091D01*
X131492581Y-99743936D01*
X130994591Y-100076682D01*
X130810000Y-100352942D01*
X130625409Y-100076682D01*
X130127419Y-99743936D01*
X129540000Y-99627091D01*
X128952581Y-99743936D01*
X128454591Y-100076682D01*
X128270000Y-100352942D01*
X128085409Y-100076682D01*
X127587419Y-99743936D01*
X127000000Y-99627091D01*
X126412581Y-99743936D01*
X125914591Y-100076682D01*
X125730000Y-100352942D01*
X125545409Y-100076682D01*
X125047419Y-99743936D01*
X124460000Y-99627091D01*
X123872581Y-99743936D01*
X123374591Y-100076682D01*
X123190000Y-100352942D01*
X123005409Y-100076682D01*
X122507419Y-99743936D01*
X121920000Y-99627091D01*
X121332581Y-99743936D01*
X120834591Y-100076682D01*
X120650000Y-100352942D01*
X120465409Y-100076682D01*
X119967419Y-99743936D01*
X119380000Y-99627091D01*
X118792581Y-99743936D01*
X118294591Y-100076682D01*
X118110000Y-100352942D01*
X117925409Y-100076682D01*
X117427419Y-99743936D01*
X116840000Y-99627091D01*
X116252581Y-99743936D01*
X115754591Y-100076682D01*
X115570000Y-100352942D01*
X115385409Y-100076682D01*
X114887419Y-99743936D01*
X114300000Y-99627091D01*
X113712581Y-99743936D01*
X113253957Y-100050378D01*
X113124090Y-99848559D01*
X112911890Y-99703569D01*
X112660000Y-99652560D01*
X110860000Y-99652560D01*
X110624683Y-99696838D01*
X110408559Y-99835910D01*
X110263569Y-100048110D01*
X110212560Y-100300000D01*
X107979881Y-100300000D01*
X107471859Y-99791091D01*
X106687441Y-99465372D01*
X105838085Y-99464630D01*
X105053100Y-99788980D01*
X104451991Y-100389041D01*
X104126272Y-101173459D01*
X104125530Y-102022815D01*
X82636030Y-102022815D01*
X82636030Y-97293846D01*
X115505000Y-97293846D01*
X115505000Y-97346154D01*
X115606621Y-97857036D01*
X115896012Y-98290142D01*
X116329118Y-98579533D01*
X116840000Y-98681154D01*
X117350882Y-98579533D01*
X117783988Y-98290142D01*
X118073379Y-97857036D01*
X118175000Y-97346154D01*
X118175000Y-97293846D01*
X118073379Y-96782964D01*
X117783988Y-96349858D01*
X117350882Y-96060467D01*
X116840000Y-95958846D01*
X116329118Y-96060467D01*
X115896012Y-96349858D01*
X115606621Y-96782964D01*
X115505000Y-97293846D01*
X82636030Y-97293846D01*
X82636030Y-94422815D01*
X93114630Y-94422815D01*
X93438980Y-95207800D01*
X94039041Y-95808909D01*
X94823459Y-96134628D01*
X95672815Y-96135370D01*
X96457800Y-95811020D01*
X97058909Y-95210959D01*
X97384628Y-94426541D01*
X97385370Y-93577185D01*
X97061020Y-92792200D01*
X96773705Y-92504383D01*
X115504769Y-92504383D01*
X115707582Y-92995229D01*
X116082796Y-93371098D01*
X116573287Y-93574768D01*
X117104383Y-93575231D01*
X117595229Y-93372418D01*
X117971098Y-92997204D01*
X118174768Y-92506713D01*
X118175231Y-91975617D01*
X117972418Y-91484771D01*
X117597204Y-91108902D01*
X117106713Y-90905232D01*
X116575617Y-90904769D01*
X116084771Y-91107582D01*
X115708902Y-91482796D01*
X115505232Y-91973287D01*
X115504769Y-92504383D01*
X96773705Y-92504383D01*
X96460959Y-92191091D01*
X95676541Y-91865372D01*
X94827185Y-91864630D01*
X94042200Y-92188980D01*
X93441091Y-92789041D01*
X93115372Y-93573459D01*
X93114630Y-94422815D01*
X82636030Y-94422815D01*
X82636030Y-87464187D01*
X113724752Y-87464187D01*
X113942757Y-87991800D01*
X114346077Y-88395824D01*
X114427931Y-88429813D01*
X114348200Y-88462757D01*
X113944176Y-88866077D01*
X113725250Y-89393309D01*
X113724752Y-89964187D01*
X113942757Y-90491800D01*
X114346077Y-90895824D01*
X114873309Y-91114750D01*
X115444187Y-91115248D01*
X115971800Y-90897243D01*
X116375824Y-90493923D01*
X116566885Y-90033795D01*
X117904716Y-90033795D01*
X118153106Y-90634943D01*
X118612637Y-91095278D01*
X119213352Y-91344716D01*
X119863795Y-91345284D01*
X120464943Y-91096894D01*
X120925278Y-90637363D01*
X121174716Y-90036648D01*
X121174718Y-90033795D01*
X124404716Y-90033795D01*
X124653106Y-90634943D01*
X125112637Y-91095278D01*
X125713352Y-91344716D01*
X126363795Y-91345284D01*
X126964943Y-91096894D01*
X127425278Y-90637363D01*
X127674716Y-90036648D01*
X127675027Y-89680000D01*
X135852560Y-89680000D01*
X135852560Y-91280000D01*
X135896838Y-91515317D01*
X136035910Y-91731441D01*
X136248110Y-91876431D01*
X136500000Y-91927440D01*
X138100000Y-91927440D01*
X138335317Y-91883162D01*
X138551441Y-91744090D01*
X138696431Y-91531890D01*
X138727815Y-91376911D01*
X138825302Y-91522811D01*
X139290849Y-91833880D01*
X139840000Y-91943113D01*
X140389151Y-91833880D01*
X140854698Y-91522811D01*
X141110000Y-91140725D01*
X141365302Y-91522811D01*
X141830849Y-91833880D01*
X142380000Y-91943113D01*
X142929151Y-91833880D01*
X143394698Y-91522811D01*
X143650000Y-91140725D01*
X143905302Y-91522811D01*
X144370849Y-91833880D01*
X144920000Y-91943113D01*
X145469151Y-91833880D01*
X145934698Y-91522811D01*
X146190000Y-91140725D01*
X146445302Y-91522811D01*
X146910849Y-91833880D01*
X147460000Y-91943113D01*
X148009151Y-91833880D01*
X148474698Y-91522811D01*
X148730000Y-91140725D01*
X148985302Y-91522811D01*
X149450849Y-91833880D01*
X150000000Y-91943113D01*
X150549151Y-91833880D01*
X151014698Y-91522811D01*
X151270000Y-91140725D01*
X151525302Y-91522811D01*
X151990849Y-91833880D01*
X152540000Y-91943113D01*
X153089151Y-91833880D01*
X153554698Y-91522811D01*
X153810000Y-91140725D01*
X154065302Y-91522811D01*
X154530849Y-91833880D01*
X155080000Y-91943113D01*
X155629151Y-91833880D01*
X156094698Y-91522811D01*
X156350000Y-91140725D01*
X156605302Y-91522811D01*
X157070849Y-91833880D01*
X157620000Y-91943113D01*
X158169151Y-91833880D01*
X158634698Y-91522811D01*
X158890000Y-91140725D01*
X159145302Y-91522811D01*
X159610849Y-91833880D01*
X160160000Y-91943113D01*
X160709151Y-91833880D01*
X161174698Y-91522811D01*
X161430000Y-91140725D01*
X161685302Y-91522811D01*
X162150849Y-91833880D01*
X162700000Y-91943113D01*
X163249151Y-91833880D01*
X163714698Y-91522811D01*
X163970000Y-91140725D01*
X164225302Y-91522811D01*
X164690849Y-91833880D01*
X165240000Y-91943113D01*
X165789151Y-91833880D01*
X166254698Y-91522811D01*
X166510000Y-91140725D01*
X166765302Y-91522811D01*
X167230849Y-91833880D01*
X167780000Y-91943113D01*
X168329151Y-91833880D01*
X168794698Y-91522811D01*
X169050000Y-91140725D01*
X169305302Y-91522811D01*
X169770849Y-91833880D01*
X170320000Y-91943113D01*
X170869151Y-91833880D01*
X171334698Y-91522811D01*
X171645767Y-91057264D01*
X171755000Y-90508113D01*
X171755000Y-90451887D01*
X171645767Y-89902736D01*
X171334698Y-89437189D01*
X170869151Y-89126120D01*
X170320000Y-89016887D01*
X169770849Y-89126120D01*
X169305302Y-89437189D01*
X169050000Y-89819275D01*
X168794698Y-89437189D01*
X168329151Y-89126120D01*
X167780000Y-89016887D01*
X167230849Y-89126120D01*
X166765302Y-89437189D01*
X166510000Y-89819275D01*
X166254698Y-89437189D01*
X165789151Y-89126120D01*
X165240000Y-89016887D01*
X164690849Y-89126120D01*
X164225302Y-89437189D01*
X163970000Y-89819275D01*
X163714698Y-89437189D01*
X163249151Y-89126120D01*
X162700000Y-89016887D01*
X162150849Y-89126120D01*
X161685302Y-89437189D01*
X161430000Y-89819275D01*
X161174698Y-89437189D01*
X160709151Y-89126120D01*
X160160000Y-89016887D01*
X159610849Y-89126120D01*
X159145302Y-89437189D01*
X158890000Y-89819275D01*
X158634698Y-89437189D01*
X158169151Y-89126120D01*
X157620000Y-89016887D01*
X157070849Y-89126120D01*
X156605302Y-89437189D01*
X156350000Y-89819275D01*
X156094698Y-89437189D01*
X155629151Y-89126120D01*
X155080000Y-89016887D01*
X154530849Y-89126120D01*
X154065302Y-89437189D01*
X153810000Y-89819275D01*
X153554698Y-89437189D01*
X153089151Y-89126120D01*
X152540000Y-89016887D01*
X151990849Y-89126120D01*
X151525302Y-89437189D01*
X151270000Y-89819275D01*
X151014698Y-89437189D01*
X150549151Y-89126120D01*
X150000000Y-89016887D01*
X149450849Y-89126120D01*
X148985302Y-89437189D01*
X148730000Y-89819275D01*
X148474698Y-89437189D01*
X148009151Y-89126120D01*
X147460000Y-89016887D01*
X146910849Y-89126120D01*
X146445302Y-89437189D01*
X146190000Y-89819275D01*
X145934698Y-89437189D01*
X145469151Y-89126120D01*
X144920000Y-89016887D01*
X144370849Y-89126120D01*
X143905302Y-89437189D01*
X143650000Y-89819275D01*
X143394698Y-89437189D01*
X142929151Y-89126120D01*
X142380000Y-89016887D01*
X141830849Y-89126120D01*
X141365302Y-89437189D01*
X141110000Y-89819275D01*
X140854698Y-89437189D01*
X140389151Y-89126120D01*
X139840000Y-89016887D01*
X139290849Y-89126120D01*
X138825302Y-89437189D01*
X138728899Y-89581465D01*
X138703162Y-89444683D01*
X138564090Y-89228559D01*
X138351890Y-89083569D01*
X138100000Y-89032560D01*
X136500000Y-89032560D01*
X136264683Y-89076838D01*
X136048559Y-89215910D01*
X135903569Y-89428110D01*
X135852560Y-89680000D01*
X127675027Y-89680000D01*
X127675284Y-89386205D01*
X127426894Y-88785057D01*
X126967363Y-88324722D01*
X126366648Y-88075284D01*
X125716205Y-88074716D01*
X125115057Y-88323106D01*
X124654722Y-88782637D01*
X124405284Y-89383352D01*
X124404716Y-90033795D01*
X121174718Y-90033795D01*
X121175284Y-89386205D01*
X120926894Y-88785057D01*
X120467363Y-88324722D01*
X119866648Y-88075284D01*
X119216205Y-88074716D01*
X118615057Y-88323106D01*
X118154722Y-88782637D01*
X117905284Y-89383352D01*
X117904716Y-90033795D01*
X116566885Y-90033795D01*
X116594750Y-89966691D01*
X116595248Y-89395813D01*
X116377243Y-88868200D01*
X115973923Y-88464176D01*
X115892069Y-88430187D01*
X115971800Y-88397243D01*
X116375824Y-87993923D01*
X116594750Y-87466691D01*
X116595248Y-86895813D01*
X116377243Y-86368200D01*
X115973923Y-85964176D01*
X115446691Y-85745250D01*
X114875813Y-85744752D01*
X114348200Y-85962757D01*
X113944176Y-86366077D01*
X113725250Y-86893309D01*
X113724752Y-87464187D01*
X82636030Y-87464187D01*
X82636030Y-85533795D01*
X117904716Y-85533795D01*
X118153106Y-86134943D01*
X118612637Y-86595278D01*
X119213352Y-86844716D01*
X119863795Y-86845284D01*
X120464943Y-86596894D01*
X120925278Y-86137363D01*
X121174716Y-85536648D01*
X121174718Y-85533795D01*
X124404716Y-85533795D01*
X124653106Y-86134943D01*
X125112637Y-86595278D01*
X125713352Y-86844716D01*
X126363795Y-86845284D01*
X126964943Y-86596894D01*
X127425278Y-86137363D01*
X127674716Y-85536648D01*
X127675068Y-85133221D01*
X173019846Y-85133221D01*
X173230255Y-85642451D01*
X173619522Y-86032397D01*
X174128384Y-86243695D01*
X174679371Y-86244176D01*
X175188601Y-86033767D01*
X175578547Y-85644500D01*
X175765533Y-85194187D01*
X178124752Y-85194187D01*
X178342757Y-85721800D01*
X178746077Y-86125824D01*
X179273309Y-86344750D01*
X179844187Y-86345248D01*
X180371800Y-86127243D01*
X180775824Y-85723923D01*
X180809813Y-85642069D01*
X180842757Y-85721800D01*
X181246077Y-86125824D01*
X181773309Y-86344750D01*
X182344187Y-86345248D01*
X182871800Y-86127243D01*
X183275824Y-85723923D01*
X183494750Y-85196691D01*
X183495248Y-84625813D01*
X183277243Y-84098200D01*
X182873923Y-83694176D01*
X182346691Y-83475250D01*
X181775813Y-83474752D01*
X181248200Y-83692757D01*
X180844176Y-84096077D01*
X180810187Y-84177931D01*
X180777243Y-84098200D01*
X180373923Y-83694176D01*
X179846691Y-83475250D01*
X179275813Y-83474752D01*
X178748200Y-83692757D01*
X178344176Y-84096077D01*
X178125250Y-84623309D01*
X178124752Y-85194187D01*
X175765533Y-85194187D01*
X175789845Y-85135638D01*
X175790326Y-84584651D01*
X175579917Y-84075421D01*
X175190650Y-83685475D01*
X174681788Y-83474177D01*
X174130801Y-83473696D01*
X173621571Y-83684105D01*
X173231625Y-84073372D01*
X173020327Y-84582234D01*
X173019846Y-85133221D01*
X127675068Y-85133221D01*
X127675284Y-84886205D01*
X127426894Y-84285057D01*
X126967363Y-83824722D01*
X126366648Y-83575284D01*
X125716205Y-83574716D01*
X125115057Y-83823106D01*
X124654722Y-84282637D01*
X124405284Y-84883352D01*
X124404716Y-85533795D01*
X121174718Y-85533795D01*
X121175284Y-84886205D01*
X120926894Y-84285057D01*
X120467363Y-83824722D01*
X119866648Y-83575284D01*
X119216205Y-83574716D01*
X118615057Y-83823106D01*
X118154722Y-84282637D01*
X117905284Y-84883352D01*
X117904716Y-85533795D01*
X82636030Y-85533795D01*
X82636030Y-72010000D01*
X93102560Y-72010000D01*
X93102560Y-75010000D01*
X93146838Y-75245317D01*
X93285910Y-75461441D01*
X93498110Y-75606431D01*
X93750000Y-75657440D01*
X96750000Y-75657440D01*
X96985317Y-75613162D01*
X97201441Y-75474090D01*
X97346431Y-75261890D01*
X97397440Y-75010000D01*
X97397440Y-73594775D01*
X109374803Y-73594775D01*
X109547233Y-74012086D01*
X109854867Y-74320257D01*
X109548355Y-74626235D01*
X109375197Y-75043244D01*
X109374803Y-75494775D01*
X109547233Y-75912086D01*
X109866235Y-76231645D01*
X110283244Y-76404803D01*
X110734775Y-76405197D01*
X111152086Y-76232767D01*
X111471645Y-75913765D01*
X111585322Y-75640000D01*
X115406887Y-75640000D01*
X115516120Y-76189151D01*
X115827189Y-76654698D01*
X116209275Y-76910000D01*
X115827189Y-77165302D01*
X115516120Y-77630849D01*
X115406887Y-78180000D01*
X115516120Y-78729151D01*
X115827189Y-79194698D01*
X116209275Y-79450000D01*
X115827189Y-79705302D01*
X115516120Y-80170849D01*
X115406887Y-80720000D01*
X115516120Y-81269151D01*
X115827189Y-81734698D01*
X116292736Y-82045767D01*
X116841887Y-82155000D01*
X116898113Y-82155000D01*
X117447264Y-82045767D01*
X117912811Y-81734698D01*
X118223880Y-81269151D01*
X118333113Y-80720000D01*
X118223880Y-80170849D01*
X117912811Y-79705302D01*
X117530725Y-79450000D01*
X117912811Y-79194698D01*
X118223880Y-78729151D01*
X118333113Y-78180000D01*
X118223880Y-77630849D01*
X117912811Y-77165302D01*
X117530725Y-76910000D01*
X117912811Y-76654698D01*
X118223880Y-76189151D01*
X118333113Y-75640000D01*
X118223880Y-75090849D01*
X117912811Y-74625302D01*
X117768535Y-74528899D01*
X117905317Y-74503162D01*
X118121441Y-74364090D01*
X118266431Y-74151890D01*
X118317440Y-73900000D01*
X118317440Y-73100000D01*
X123026887Y-73100000D01*
X123136120Y-73649151D01*
X123447189Y-74114698D01*
X123829275Y-74370000D01*
X123447189Y-74625302D01*
X123136120Y-75090849D01*
X123026887Y-75640000D01*
X123136120Y-76189151D01*
X123447189Y-76654698D01*
X123829275Y-76910000D01*
X123447189Y-77165302D01*
X123136120Y-77630849D01*
X123026887Y-78180000D01*
X123136120Y-78729151D01*
X123447189Y-79194698D01*
X123829275Y-79450000D01*
X123447189Y-79705302D01*
X123136120Y-80170849D01*
X123026887Y-80720000D01*
X123136120Y-81269151D01*
X123447189Y-81734698D01*
X123912736Y-82045767D01*
X124461887Y-82155000D01*
X124518113Y-82155000D01*
X125067264Y-82045767D01*
X125532811Y-81734698D01*
X125843880Y-81269151D01*
X125953113Y-80720000D01*
X125860265Y-80253221D01*
X173019846Y-80253221D01*
X173230255Y-80762451D01*
X173619522Y-81152397D01*
X174128384Y-81363695D01*
X174679371Y-81364176D01*
X175188601Y-81153767D01*
X175578547Y-80764500D01*
X175789845Y-80255638D01*
X175789872Y-80224187D01*
X177984752Y-80224187D01*
X178202757Y-80751800D01*
X178606077Y-81155824D01*
X179133309Y-81374750D01*
X179704187Y-81375248D01*
X180231800Y-81157243D01*
X180635824Y-80753923D01*
X180669813Y-80672069D01*
X180702757Y-80751800D01*
X181106077Y-81155824D01*
X181633309Y-81374750D01*
X182204187Y-81375248D01*
X182731800Y-81157243D01*
X183135824Y-80753923D01*
X183354750Y-80226691D01*
X183355248Y-79655813D01*
X183137243Y-79128200D01*
X182733923Y-78724176D01*
X182206691Y-78505250D01*
X181635813Y-78504752D01*
X181108200Y-78722757D01*
X180704176Y-79126077D01*
X180670187Y-79207931D01*
X180637243Y-79128200D01*
X180233923Y-78724176D01*
X179706691Y-78505250D01*
X179135813Y-78504752D01*
X178608200Y-78722757D01*
X178204176Y-79126077D01*
X177985250Y-79653309D01*
X177984752Y-80224187D01*
X175789872Y-80224187D01*
X175790326Y-79704651D01*
X175579917Y-79195421D01*
X175190650Y-78805475D01*
X174681788Y-78594177D01*
X174130801Y-78593696D01*
X173621571Y-78804105D01*
X173231625Y-79193372D01*
X173020327Y-79702234D01*
X173019846Y-80253221D01*
X125860265Y-80253221D01*
X125843880Y-80170849D01*
X125532811Y-79705302D01*
X125150725Y-79450000D01*
X125532811Y-79194698D01*
X125843880Y-78729151D01*
X125953113Y-78180000D01*
X125843880Y-77630849D01*
X125532811Y-77165302D01*
X125150725Y-76910000D01*
X125532811Y-76654698D01*
X125843880Y-76189151D01*
X125953113Y-75640000D01*
X125867956Y-75211887D01*
X135865000Y-75211887D01*
X135865000Y-75268113D01*
X135974233Y-75817264D01*
X136285302Y-76282811D01*
X136750849Y-76593880D01*
X137300000Y-76703113D01*
X137849151Y-76593880D01*
X138314698Y-76282811D01*
X138570000Y-75900725D01*
X138825302Y-76282811D01*
X139290849Y-76593880D01*
X139840000Y-76703113D01*
X140389151Y-76593880D01*
X140854698Y-76282811D01*
X141110000Y-75900725D01*
X141365302Y-76282811D01*
X141830849Y-76593880D01*
X142380000Y-76703113D01*
X142929151Y-76593880D01*
X143394698Y-76282811D01*
X143650000Y-75900725D01*
X143905302Y-76282811D01*
X144370849Y-76593880D01*
X144920000Y-76703113D01*
X145469151Y-76593880D01*
X145934698Y-76282811D01*
X146190000Y-75900725D01*
X146445302Y-76282811D01*
X146910849Y-76593880D01*
X147460000Y-76703113D01*
X148009151Y-76593880D01*
X148474698Y-76282811D01*
X148730000Y-75900725D01*
X148985302Y-76282811D01*
X149450849Y-76593880D01*
X150000000Y-76703113D01*
X150549151Y-76593880D01*
X151014698Y-76282811D01*
X151270000Y-75900725D01*
X151525302Y-76282811D01*
X151990849Y-76593880D01*
X152540000Y-76703113D01*
X153089151Y-76593880D01*
X153554698Y-76282811D01*
X153810000Y-75900725D01*
X154065302Y-76282811D01*
X154530849Y-76593880D01*
X155080000Y-76703113D01*
X155629151Y-76593880D01*
X156094698Y-76282811D01*
X156350000Y-75900725D01*
X156605302Y-76282811D01*
X157070849Y-76593880D01*
X157620000Y-76703113D01*
X158169151Y-76593880D01*
X158634698Y-76282811D01*
X158890000Y-75900725D01*
X159145302Y-76282811D01*
X159610849Y-76593880D01*
X160160000Y-76703113D01*
X160709151Y-76593880D01*
X161174698Y-76282811D01*
X161430000Y-75900725D01*
X161685302Y-76282811D01*
X162150849Y-76593880D01*
X162700000Y-76703113D01*
X163249151Y-76593880D01*
X163714698Y-76282811D01*
X163970000Y-75900725D01*
X164225302Y-76282811D01*
X164690849Y-76593880D01*
X165240000Y-76703113D01*
X165789151Y-76593880D01*
X166254698Y-76282811D01*
X166510000Y-75900725D01*
X166765302Y-76282811D01*
X167230849Y-76593880D01*
X167780000Y-76703113D01*
X168329151Y-76593880D01*
X168794698Y-76282811D01*
X169050000Y-75900725D01*
X169305302Y-76282811D01*
X169770849Y-76593880D01*
X170320000Y-76703113D01*
X170869151Y-76593880D01*
X171334698Y-76282811D01*
X171645767Y-75817264D01*
X171755000Y-75268113D01*
X171755000Y-75211887D01*
X171645767Y-74662736D01*
X171334698Y-74197189D01*
X170869151Y-73886120D01*
X170320000Y-73776887D01*
X169770849Y-73886120D01*
X169305302Y-74197189D01*
X169050000Y-74579275D01*
X168794698Y-74197189D01*
X168329151Y-73886120D01*
X167780000Y-73776887D01*
X167230849Y-73886120D01*
X166765302Y-74197189D01*
X166510000Y-74579275D01*
X166254698Y-74197189D01*
X165789151Y-73886120D01*
X165240000Y-73776887D01*
X164690849Y-73886120D01*
X164225302Y-74197189D01*
X163970000Y-74579275D01*
X163714698Y-74197189D01*
X163249151Y-73886120D01*
X162700000Y-73776887D01*
X162150849Y-73886120D01*
X161685302Y-74197189D01*
X161430000Y-74579275D01*
X161174698Y-74197189D01*
X160709151Y-73886120D01*
X160160000Y-73776887D01*
X159610849Y-73886120D01*
X159145302Y-74197189D01*
X158890000Y-74579275D01*
X158634698Y-74197189D01*
X158169151Y-73886120D01*
X157620000Y-73776887D01*
X157070849Y-73886120D01*
X156605302Y-74197189D01*
X156350000Y-74579275D01*
X156094698Y-74197189D01*
X155629151Y-73886120D01*
X155080000Y-73776887D01*
X154530849Y-73886120D01*
X154065302Y-74197189D01*
X153810000Y-74579275D01*
X153554698Y-74197189D01*
X153089151Y-73886120D01*
X152540000Y-73776887D01*
X151990849Y-73886120D01*
X151525302Y-74197189D01*
X151270000Y-74579275D01*
X151014698Y-74197189D01*
X150549151Y-73886120D01*
X150000000Y-73776887D01*
X149450849Y-73886120D01*
X148985302Y-74197189D01*
X148730000Y-74579275D01*
X148474698Y-74197189D01*
X148009151Y-73886120D01*
X147460000Y-73776887D01*
X146910849Y-73886120D01*
X146445302Y-74197189D01*
X146190000Y-74579275D01*
X145934698Y-74197189D01*
X145469151Y-73886120D01*
X144920000Y-73776887D01*
X144370849Y-73886120D01*
X143905302Y-74197189D01*
X143650000Y-74579275D01*
X143394698Y-74197189D01*
X142929151Y-73886120D01*
X142380000Y-73776887D01*
X141830849Y-73886120D01*
X141365302Y-74197189D01*
X141110000Y-74579275D01*
X140854698Y-74197189D01*
X140389151Y-73886120D01*
X139840000Y-73776887D01*
X139290849Y-73886120D01*
X138825302Y-74197189D01*
X138570000Y-74579275D01*
X138314698Y-74197189D01*
X137849151Y-73886120D01*
X137300000Y-73776887D01*
X136750849Y-73886120D01*
X136285302Y-74197189D01*
X135974233Y-74662736D01*
X135865000Y-75211887D01*
X125867956Y-75211887D01*
X125843880Y-75090849D01*
X125532811Y-74625302D01*
X125150725Y-74370000D01*
X125532811Y-74114698D01*
X125843880Y-73649151D01*
X125953113Y-73100000D01*
X125843880Y-72550849D01*
X125532811Y-72085302D01*
X125067264Y-71774233D01*
X124518113Y-71665000D01*
X124461887Y-71665000D01*
X123912736Y-71774233D01*
X123447189Y-72085302D01*
X123136120Y-72550849D01*
X123026887Y-73100000D01*
X118317440Y-73100000D01*
X118317440Y-72300000D01*
X118273162Y-72064683D01*
X118134090Y-71848559D01*
X117921890Y-71703569D01*
X117670000Y-71652560D01*
X116070000Y-71652560D01*
X115834683Y-71696838D01*
X115618559Y-71835910D01*
X115473569Y-72048110D01*
X115422560Y-72300000D01*
X115422560Y-73900000D01*
X115466838Y-74135317D01*
X115605910Y-74351441D01*
X115818110Y-74496431D01*
X115973089Y-74527815D01*
X115827189Y-74625302D01*
X115516120Y-75090849D01*
X115406887Y-75640000D01*
X111585322Y-75640000D01*
X111644803Y-75496756D01*
X111645197Y-75045225D01*
X111472767Y-74627914D01*
X111165133Y-74319743D01*
X111471645Y-74013765D01*
X111644803Y-73596756D01*
X111645197Y-73145225D01*
X111472767Y-72727914D01*
X111153765Y-72408355D01*
X110736756Y-72235197D01*
X110285225Y-72234803D01*
X109867914Y-72407233D01*
X109548355Y-72726235D01*
X109375197Y-73143244D01*
X109374803Y-73594775D01*
X97397440Y-73594775D01*
X97397440Y-72010000D01*
X97353162Y-71774683D01*
X97214090Y-71558559D01*
X97001890Y-71413569D01*
X96750000Y-71362560D01*
X93750000Y-71362560D01*
X93514683Y-71406838D01*
X93298559Y-71545910D01*
X93153569Y-71758110D01*
X93102560Y-72010000D01*
X82636030Y-72010000D01*
X82636030Y-69977000D01*
X183982030Y-69977000D01*
X183982030Y-133223000D01*
M02*
