<?xml version="1.0" standalone="no"?>
 <!DOCTYPE svg PUBLIC "-//W3C//DTD SVG 1.1//EN" 
 "http://www.w3.org/Graphics/SVG/1.1/DTD/svg11.dtd"> 
<svg xmlns="http://www.w3.org/2000/svg" version="1.1" 
    width="29.7002cm" height="21.0007cm" viewBox="0 0 116930 82680 ">
<title>SVG Picture created as Clock_LCD-F.SilkS.svg date 2018/06/07 19:15:23 </title>
  <desc>Picture generated by PCBNEW </desc>
<g style="fill:#000000; fill-opacity:1;stroke:#000000; stroke-opacity:1;
stroke-linecap:round; stroke-linejoin:round; "
 transform="translate(0 0) scale(1 1)">
</g>
<g style="fill:#000000; fill-opacity:0.0; 
stroke:#000000; stroke-width:-0.000393701; stroke-opacity:1; 
stroke-linecap:round; stroke-linejoin:round;">
</g>
<g style="fill:#000000; fill-opacity:0.0; 
stroke:#000000; stroke-width:39.3701; stroke-opacity:1; 
stroke-linecap:round; stroke-linejoin:round;">
</g>
<g style="fill:#000000; fill-opacity:0.0; 
stroke:#000000; stroke-width:59.0551; stroke-opacity:1; 
stroke-linecap:round; stroke-linejoin:round;">
<rect x="69685.9" y="65357.2" width="42519.7" height="12598.4" rx="0" />
</g>
<g style="fill:#000000; fill-opacity:0.0; 
stroke:#000000; stroke-width:39.3701; stroke-opacity:1; 
stroke-linecap:round; stroke-linejoin:round;">
</g>
<g style="fill:#000000; fill-opacity:0.0; 
stroke:#000000; stroke-width:59.0551; stroke-opacity:1; 
stroke-linecap:round; stroke-linejoin:round;">
<rect x="3937.01" y="3937.01" width="109056" height="74806" rx="0" />
</g>
<g style="fill:#000000; fill-opacity:0.0; 
stroke:#000000; stroke-width:39.3701; stroke-opacity:1; 
stroke-linecap:round; stroke-linejoin:round;">
</g>
<g style="fill:#000000; fill-opacity:0.0; 
stroke:#000000; stroke-width:59.0551; stroke-opacity:1; 
stroke-linecap:round; stroke-linejoin:round;">
<rect x="4724.41" y="4724.41" width="107481" height="73231.2" rx="0" />
</g>
<g style="fill:#000000; fill-opacity:0.0; 
stroke:#000000; stroke-width:39.3701; stroke-opacity:1; 
stroke-linecap:round; stroke-linejoin:round;">
</g>
<g style="fill:#000000; fill-opacity:0.0; 
stroke:#000000; stroke-width:59.0551; stroke-opacity:1; 
stroke-linecap:round; stroke-linejoin:round;">
<path d="M23622 4724
L23622 3937
" />
</g>
<g style="fill:#000000; fill-opacity:0.0; 
stroke:#000000; stroke-width:39.3701; stroke-opacity:1; 
stroke-linecap:round; stroke-linejoin:round;">
</g>
<g style="fill:#000000; fill-opacity:0.0; 
stroke:#000000; stroke-width:59.0551; stroke-opacity:1; 
stroke-linecap:round; stroke-linejoin:round;">
<path d="M43307 4724
L43307 3937
" />
</g>
<g style="fill:#000000; fill-opacity:0.0; 
stroke:#000000; stroke-width:39.3701; stroke-opacity:1; 
stroke-linecap:round; stroke-linejoin:round;">
</g>
<g style="fill:#000000; fill-opacity:0.0; 
stroke:#000000; stroke-width:59.0551; stroke-opacity:1; 
stroke-linecap:round; stroke-linejoin:round;">
<path d="M62992 4724
L62992 3937
" />
</g>
<g style="fill:#000000; fill-opacity:0.0; 
stroke:#000000; stroke-width:39.3701; stroke-opacity:1; 
stroke-linecap:round; stroke-linejoin:round;">
</g>
<g style="fill:#000000; fill-opacity:0.0; 
stroke:#000000; stroke-width:59.0551; stroke-opacity:1; 
stroke-linecap:round; stroke-linejoin:round;">
<path d="M82677 4724
L82677 3937
" />
</g>
<g style="fill:#000000; fill-opacity:0.0; 
stroke:#000000; stroke-width:39.3701; stroke-opacity:1; 
stroke-linecap:round; stroke-linejoin:round;">
</g>
<g style="fill:#000000; fill-opacity:0.0; 
stroke:#000000; stroke-width:59.0551; stroke-opacity:1; 
stroke-linecap:round; stroke-linejoin:round;">
<path d="M102362 4724
L102362 3937
" />
</g>
<g style="fill:#000000; fill-opacity:0.0; 
stroke:#000000; stroke-width:39.3701; stroke-opacity:1; 
stroke-linecap:round; stroke-linejoin:round;">
</g>
<g style="fill:#000000; fill-opacity:0.0; 
stroke:#000000; stroke-width:59.0551; stroke-opacity:1; 
stroke-linecap:round; stroke-linejoin:round;">
<path d="M14169 4562
L13877 4562
" />
<path d="M14023 4562
L14023 4050
L13974 4123
L13925 4172
L13877 4196
" />
</g>
<g style="fill:#000000; fill-opacity:0.0; 
stroke:#000000; stroke-width:39.3701; stroke-opacity:1; 
stroke-linecap:round; stroke-linejoin:round;">
</g>
<g style="fill:#000000; fill-opacity:0.0; 
stroke:#000000; stroke-width:59.0551; stroke-opacity:1; 
stroke-linecap:round; stroke-linejoin:round;">
<path d="M33562 4099
L33586 4074
L33635 4050
L33757 4050
L33805 4074
L33830 4099
L33854 4147
L33854 4196
L33830 4269
L33537 4562
L33854 4562
" />
</g>
<g style="fill:#000000; fill-opacity:0.0; 
stroke:#000000; stroke-width:39.3701; stroke-opacity:1; 
stroke-linecap:round; stroke-linejoin:round;">
</g>
<g style="fill:#000000; fill-opacity:0.0; 
stroke:#000000; stroke-width:59.0551; stroke-opacity:1; 
stroke-linecap:round; stroke-linejoin:round;">
<path d="M53222 4050
L53539 4050
L53368 4245
L53442 4245
L53490 4269
L53515 4294
L53539 4342
L53539 4464
L53515 4513
L53490 4537
L53442 4562
L53295 4562
L53247 4537
L53222 4513
" />
</g>
<g style="fill:#000000; fill-opacity:0.0; 
stroke:#000000; stroke-width:39.3701; stroke-opacity:1; 
stroke-linecap:round; stroke-linejoin:round;">
</g>
<g style="fill:#000000; fill-opacity:0.0; 
stroke:#000000; stroke-width:59.0551; stroke-opacity:1; 
stroke-linecap:round; stroke-linejoin:round;">
<path d="M73175 4221
L73175 4562
" />
<path d="M73053 4026
L72932 4391
L73248 4391
" />
</g>
<g style="fill:#000000; fill-opacity:0.0; 
stroke:#000000; stroke-width:39.3701; stroke-opacity:1; 
stroke-linecap:round; stroke-linejoin:round;">
</g>
<g style="fill:#000000; fill-opacity:0.0; 
stroke:#000000; stroke-width:59.0551; stroke-opacity:1; 
stroke-linecap:round; stroke-linejoin:round;">
<path d="M92885 4050
L92641 4050
L92617 4294
L92641 4269
L92690 4245
L92812 4245
L92860 4269
L92885 4294
L92909 4342
L92909 4464
L92885 4513
L92860 4537
L92812 4562
L92690 4562
L92641 4537
L92617 4513
" />
</g>
<g style="fill:#000000; fill-opacity:0.0; 
stroke:#000000; stroke-width:39.3701; stroke-opacity:1; 
stroke-linecap:round; stroke-linejoin:round;">
</g>
<g style="fill:#000000; fill-opacity:0.0; 
stroke:#000000; stroke-width:59.0551; stroke-opacity:1; 
stroke-linecap:round; stroke-linejoin:round;">
<path d="M112545 4050
L112448 4050
L112399 4074
L112375 4099
L112326 4172
L112302 4269
L112302 4464
L112326 4513
L112350 4537
L112399 4562
L112497 4562
L112545 4537
L112570 4513
L112594 4464
L112594 4342
L112570 4294
L112545 4269
L112497 4245
L112399 4245
L112350 4269
L112326 4294
L112302 4342
" />
</g>
<g style="fill:#000000; fill-opacity:0.0; 
stroke:#000000; stroke-width:39.3701; stroke-opacity:1; 
stroke-linecap:round; stroke-linejoin:round;">
</g>
<g style="fill:#000000; fill-opacity:0.0; 
stroke:#000000; stroke-width:59.0551; stroke-opacity:1; 
stroke-linecap:round; stroke-linejoin:round;">
<path d="M23622 77955
L23622 78742
" />
</g>
<g style="fill:#000000; fill-opacity:0.0; 
stroke:#000000; stroke-width:39.3701; stroke-opacity:1; 
stroke-linecap:round; stroke-linejoin:round;">
</g>
<g style="fill:#000000; fill-opacity:0.0; 
stroke:#000000; stroke-width:59.0551; stroke-opacity:1; 
stroke-linecap:round; stroke-linejoin:round;">
<path d="M43307 77955
L43307 78742
" />
</g>
<g style="fill:#000000; fill-opacity:0.0; 
stroke:#000000; stroke-width:39.3701; stroke-opacity:1; 
stroke-linecap:round; stroke-linejoin:round;">
</g>
<g style="fill:#000000; fill-opacity:0.0; 
stroke:#000000; stroke-width:59.0551; stroke-opacity:1; 
stroke-linecap:round; stroke-linejoin:round;">
<path d="M62992 77955
L62992 78742
" />
</g>
<g style="fill:#000000; fill-opacity:0.0; 
stroke:#000000; stroke-width:39.3701; stroke-opacity:1; 
stroke-linecap:round; stroke-linejoin:round;">
</g>
<g style="fill:#000000; fill-opacity:0.0; 
stroke:#000000; stroke-width:59.0551; stroke-opacity:1; 
stroke-linecap:round; stroke-linejoin:round;">
<path d="M82677 77955
L82677 78742
" />
</g>
<g style="fill:#000000; fill-opacity:0.0; 
stroke:#000000; stroke-width:39.3701; stroke-opacity:1; 
stroke-linecap:round; stroke-linejoin:round;">
</g>
<g style="fill:#000000; fill-opacity:0.0; 
stroke:#000000; stroke-width:59.0551; stroke-opacity:1; 
stroke-linecap:round; stroke-linejoin:round;">
<path d="M102362 77955
L102362 78742
" />
</g>
<g style="fill:#000000; fill-opacity:0.0; 
stroke:#000000; stroke-width:39.3701; stroke-opacity:1; 
stroke-linecap:round; stroke-linejoin:round;">
</g>
<g style="fill:#000000; fill-opacity:0.0; 
stroke:#000000; stroke-width:59.0551; stroke-opacity:1; 
stroke-linecap:round; stroke-linejoin:round;">
<path d="M14169 78580
L13877 78580
" />
<path d="M14023 78580
L14023 78069
L13974 78142
L13925 78190
L13877 78215
" />
</g>
<g style="fill:#000000; fill-opacity:0.0; 
stroke:#000000; stroke-width:39.3701; stroke-opacity:1; 
stroke-linecap:round; stroke-linejoin:round;">
</g>
<g style="fill:#000000; fill-opacity:0.0; 
stroke:#000000; stroke-width:59.0551; stroke-opacity:1; 
stroke-linecap:round; stroke-linejoin:round;">
<path d="M33562 78117
L33586 78093
L33635 78069
L33757 78069
L33805 78093
L33830 78117
L33854 78166
L33854 78215
L33830 78288
L33537 78580
L33854 78580
" />
</g>
<g style="fill:#000000; fill-opacity:0.0; 
stroke:#000000; stroke-width:39.3701; stroke-opacity:1; 
stroke-linecap:round; stroke-linejoin:round;">
</g>
<g style="fill:#000000; fill-opacity:0.0; 
stroke:#000000; stroke-width:59.0551; stroke-opacity:1; 
stroke-linecap:round; stroke-linejoin:round;">
<path d="M53222 78069
L53539 78069
L53368 78263
L53442 78263
L53490 78288
L53515 78312
L53539 78361
L53539 78483
L53515 78532
L53490 78556
L53442 78580
L53295 78580
L53247 78556
L53222 78532
" />
</g>
<g style="fill:#000000; fill-opacity:0.0; 
stroke:#000000; stroke-width:39.3701; stroke-opacity:1; 
stroke-linecap:round; stroke-linejoin:round;">
</g>
<g style="fill:#000000; fill-opacity:0.0; 
stroke:#000000; stroke-width:59.0551; stroke-opacity:1; 
stroke-linecap:round; stroke-linejoin:round;">
<path d="M73175 78239
L73175 78580
" />
<path d="M73053 78044
L72932 78410
L73248 78410
" />
</g>
<g style="fill:#000000; fill-opacity:0.0; 
stroke:#000000; stroke-width:39.3701; stroke-opacity:1; 
stroke-linecap:round; stroke-linejoin:round;">
</g>
<g style="fill:#000000; fill-opacity:0.0; 
stroke:#000000; stroke-width:59.0551; stroke-opacity:1; 
stroke-linecap:round; stroke-linejoin:round;">
<path d="M92885 78069
L92641 78069
L92617 78312
L92641 78288
L92690 78263
L92812 78263
L92860 78288
L92885 78312
L92909 78361
L92909 78483
L92885 78532
L92860 78556
L92812 78580
L92690 78580
L92641 78556
L92617 78532
" />
</g>
<g style="fill:#000000; fill-opacity:0.0; 
stroke:#000000; stroke-width:39.3701; stroke-opacity:1; 
stroke-linecap:round; stroke-linejoin:round;">
</g>
<g style="fill:#000000; fill-opacity:0.0; 
stroke:#000000; stroke-width:59.0551; stroke-opacity:1; 
stroke-linecap:round; stroke-linejoin:round;">
<path d="M112545 78069
L112448 78069
L112399 78093
L112375 78117
L112326 78190
L112302 78288
L112302 78483
L112326 78532
L112350 78556
L112399 78580
L112497 78580
L112545 78556
L112570 78532
L112594 78483
L112594 78361
L112570 78312
L112545 78288
L112497 78263
L112399 78263
L112350 78288
L112326 78312
L112302 78361
" />
</g>
<g style="fill:#000000; fill-opacity:0.0; 
stroke:#000000; stroke-width:39.3701; stroke-opacity:1; 
stroke-linecap:round; stroke-linejoin:round;">
</g>
<g style="fill:#000000; fill-opacity:0.0; 
stroke:#000000; stroke-width:59.0551; stroke-opacity:1; 
stroke-linecap:round; stroke-linejoin:round;">
<path d="M3937 23622
L4724 23622
" />
</g>
<g style="fill:#000000; fill-opacity:0.0; 
stroke:#000000; stroke-width:39.3701; stroke-opacity:1; 
stroke-linecap:round; stroke-linejoin:round;">
</g>
<g style="fill:#000000; fill-opacity:0.0; 
stroke:#000000; stroke-width:59.0551; stroke-opacity:1; 
stroke-linecap:round; stroke-linejoin:round;">
<path d="M3937 43307
L4724 43307
" />
</g>
<g style="fill:#000000; fill-opacity:0.0; 
stroke:#000000; stroke-width:39.3701; stroke-opacity:1; 
stroke-linecap:round; stroke-linejoin:round;">
</g>
<g style="fill:#000000; fill-opacity:0.0; 
stroke:#000000; stroke-width:59.0551; stroke-opacity:1; 
stroke-linecap:round; stroke-linejoin:round;">
<path d="M3937 62992
L4724 62992
" />
</g>
<g style="fill:#000000; fill-opacity:0.0; 
stroke:#000000; stroke-width:39.3701; stroke-opacity:1; 
stroke-linecap:round; stroke-linejoin:round;">
</g>
<g style="fill:#000000; fill-opacity:0.0; 
stroke:#000000; stroke-width:59.0551; stroke-opacity:1; 
stroke-linecap:round; stroke-linejoin:round;">
<path d="M4208 13864
L4452 13864
" />
<path d="M4160 14011
L4330 13499
L4501 14011
" />
</g>
<g style="fill:#000000; fill-opacity:0.0; 
stroke:#000000; stroke-width:39.3701; stroke-opacity:1; 
stroke-linecap:round; stroke-linejoin:round;">
</g>
<g style="fill:#000000; fill-opacity:0.0; 
stroke:#000000; stroke-width:59.0551; stroke-opacity:1; 
stroke-linecap:round; stroke-linejoin:round;">
<path d="M4367 33428
L4440 33452
L4464 33476
L4489 33525
L4489 33598
L4464 33647
L4440 33671
L4391 33696
L4196 33696
L4196 33184
L4367 33184
L4416 33208
L4440 33233
L4464 33281
L4464 33330
L4440 33379
L4416 33403
L4367 33428
L4196 33428
" />
</g>
<g style="fill:#000000; fill-opacity:0.0; 
stroke:#000000; stroke-width:39.3701; stroke-opacity:1; 
stroke-linecap:round; stroke-linejoin:round;">
</g>
<g style="fill:#000000; fill-opacity:0.0; 
stroke:#000000; stroke-width:59.0551; stroke-opacity:1; 
stroke-linecap:round; stroke-linejoin:round;">
<path d="M4489 53332
L4464 53356
L4391 53381
L4342 53381
L4269 53356
L4221 53308
L4196 53259
L4172 53161
L4172 53088
L4196 52991
L4221 52942
L4269 52893
L4342 52869
L4391 52869
L4464 52893
L4489 52918
" />
</g>
<g style="fill:#000000; fill-opacity:0.0; 
stroke:#000000; stroke-width:39.3701; stroke-opacity:1; 
stroke-linecap:round; stroke-linejoin:round;">
</g>
<g style="fill:#000000; fill-opacity:0.0; 
stroke:#000000; stroke-width:59.0551; stroke-opacity:1; 
stroke-linecap:round; stroke-linejoin:round;">
<path d="M4196 73066
L4196 72554
L4318 72554
L4391 72578
L4440 72627
L4464 72676
L4489 72773
L4489 72846
L4464 72944
L4440 72993
L4391 73041
L4318 73066
L4196 73066
" />
</g>
<g style="fill:#000000; fill-opacity:0.0; 
stroke:#000000; stroke-width:39.3701; stroke-opacity:1; 
stroke-linecap:round; stroke-linejoin:round;">
</g>
<g style="fill:#000000; fill-opacity:0.0; 
stroke:#000000; stroke-width:59.0551; stroke-opacity:1; 
stroke-linecap:round; stroke-linejoin:round;">
<path d="M112992 23622
L112205 23622
" />
</g>
<g style="fill:#000000; fill-opacity:0.0; 
stroke:#000000; stroke-width:39.3701; stroke-opacity:1; 
stroke-linecap:round; stroke-linejoin:round;">
</g>
<g style="fill:#000000; fill-opacity:0.0; 
stroke:#000000; stroke-width:59.0551; stroke-opacity:1; 
stroke-linecap:round; stroke-linejoin:round;">
<path d="M112992 43307
L112205 43307
" />
</g>
<g style="fill:#000000; fill-opacity:0.0; 
stroke:#000000; stroke-width:39.3701; stroke-opacity:1; 
stroke-linecap:round; stroke-linejoin:round;">
</g>
<g style="fill:#000000; fill-opacity:0.0; 
stroke:#000000; stroke-width:59.0551; stroke-opacity:1; 
stroke-linecap:round; stroke-linejoin:round;">
<path d="M112992 62992
L112205 62992
" />
</g>
<g style="fill:#000000; fill-opacity:0.0; 
stroke:#000000; stroke-width:39.3701; stroke-opacity:1; 
stroke-linecap:round; stroke-linejoin:round;">
</g>
<g style="fill:#000000; fill-opacity:0.0; 
stroke:#000000; stroke-width:59.0551; stroke-opacity:1; 
stroke-linecap:round; stroke-linejoin:round;">
<path d="M112477 13864
L112721 13864
" />
<path d="M112428 14011
L112599 13499
L112769 14011
" />
</g>
<g style="fill:#000000; fill-opacity:0.0; 
stroke:#000000; stroke-width:39.3701; stroke-opacity:1; 
stroke-linecap:round; stroke-linejoin:round;">
</g>
<g style="fill:#000000; fill-opacity:0.0; 
stroke:#000000; stroke-width:59.0551; stroke-opacity:1; 
stroke-linecap:round; stroke-linejoin:round;">
<path d="M112635 33428
L112708 33452
L112733 33476
L112757 33525
L112757 33598
L112733 33647
L112708 33671
L112660 33696
L112465 33696
L112465 33184
L112635 33184
L112684 33208
L112708 33233
L112733 33281
L112733 33330
L112708 33379
L112684 33403
L112635 33428
L112465 33428
" />
</g>
<g style="fill:#000000; fill-opacity:0.0; 
stroke:#000000; stroke-width:39.3701; stroke-opacity:1; 
stroke-linecap:round; stroke-linejoin:round;">
</g>
<g style="fill:#000000; fill-opacity:0.0; 
stroke:#000000; stroke-width:59.0551; stroke-opacity:1; 
stroke-linecap:round; stroke-linejoin:round;">
<path d="M112757 53332
L112733 53356
L112660 53381
L112611 53381
L112538 53356
L112489 53308
L112465 53259
L112440 53161
L112440 53088
L112465 52991
L112489 52942
L112538 52893
L112611 52869
L112660 52869
L112733 52893
L112757 52918
" />
</g>
<g style="fill:#000000; fill-opacity:0.0; 
stroke:#000000; stroke-width:39.3701; stroke-opacity:1; 
stroke-linecap:round; stroke-linejoin:round;">
</g>
<g style="fill:#000000; fill-opacity:0.0; 
stroke:#000000; stroke-width:59.0551; stroke-opacity:1; 
stroke-linecap:round; stroke-linejoin:round;">
<path d="M112465 73066
L112465 72554
L112587 72554
L112660 72578
L112708 72627
L112733 72676
L112757 72773
L112757 72846
L112733 72944
L112708 72993
L112660 73041
L112587 73066
L112465 73066
" />
</g>
<g style="fill:#000000; fill-opacity:0.0; 
stroke:#000000; stroke-width:39.3701; stroke-opacity:1; 
stroke-linecap:round; stroke-linejoin:round;">
</g>
<g style="fill:#000000; fill-opacity:0.0; 
stroke:#000000; stroke-width:59.0551; stroke-opacity:1; 
stroke-linecap:round; stroke-linejoin:round;">
<path d="M78881 76293
L78881 75703
L79022 75703
L79106 75731
L79162 75787
L79190 75843
L79219 75956
L79219 76040
L79190 76153
L79162 76209
L79106 76265
L79022 76293
L78881 76293
" />
<path d="M79725 76293
L79725 75984
L79697 75928
L79640 75899
L79528 75899
L79472 75928
" />
<path d="M79725 76265
L79669 76293
L79528 76293
L79472 76265
L79444 76209
L79444 76153
L79472 76096
L79528 76068
L79669 76068
L79725 76040
" />
<path d="M79922 75899
L80147 75899
" />
<path d="M80006 75703
L80006 76209
L80034 76265
L80090 76293
L80147 76293
" />
<path d="M80568 76265
L80512 76293
L80400 76293
L80343 76265
L80315 76209
L80315 75984
L80343 75928
L80400 75899
L80512 75899
L80568 75928
L80597 75984
L80597 76040
L80315 76096
" />
<path d="M80850 76237
L80878 76265
L80850 76293
L80822 76265
L80850 76237
L80850 76293
" />
<path d="M80850 75928
L80878 75956
L80850 75984
L80822 75956
L80850 75928
L80850 75984
" />
<path d="M81553 75759
L81581 75731
L81637 75703
L81778 75703
L81834 75731
L81862 75759
L81890 75815
L81890 75871
L81862 75956
L81525 76293
L81890 76293
" />
<path d="M82256 75703
L82312 75703
L82368 75731
L82396 75759
L82424 75815
L82453 75928
L82453 76068
L82424 76181
L82396 76237
L82368 76265
L82312 76293
L82256 76293
L82199 76265
L82171 76237
L82143 76181
L82115 76068
L82115 75928
L82143 75815
L82171 75759
L82199 75731
L82256 75703
" />
<path d="M83015 76293
L82678 76293
" />
<path d="M82846 76293
L82846 75703
L82790 75787
L82734 75843
L82678 75871
" />
<path d="M83352 75956
L83296 75928
L83268 75899
L83240 75843
L83240 75815
L83268 75759
L83296 75731
L83352 75703
L83465 75703
L83521 75731
L83549 75759
L83577 75815
L83577 75843
L83549 75899
L83521 75928
L83465 75956
L83352 75956
L83296 75984
L83268 76012
L83240 76068
L83240 76181
L83268 76237
L83296 76265
L83352 76293
L83465 76293
L83521 76265
L83549 76237
L83577 76181
L83577 76068
L83549 76012
L83521 75984
L83465 75956
" />
<path d="M83831 76068
L84280 76068
" />
<path d="M84674 75703
L84730 75703
L84787 75731
L84815 75759
L84843 75815
L84871 75928
L84871 76068
L84843 76181
L84815 76237
L84787 76265
L84730 76293
L84674 76293
L84618 76265
L84590 76237
L84562 76181
L84534 76068
L84534 75928
L84562 75815
L84590 75759
L84618 75731
L84674 75703
" />
<path d="M85377 75703
L85265 75703
L85208 75731
L85180 75759
L85124 75843
L85096 75956
L85096 76181
L85124 76237
L85152 76265
L85208 76293
L85321 76293
L85377 76265
L85405 76237
L85433 76181
L85433 76040
L85405 75984
L85377 75956
L85321 75928
L85208 75928
L85152 75956
L85124 75984
L85096 76040
" />
<path d="M85687 76068
L86136 76068
" />
<path d="M86530 75703
L86586 75703
L86643 75731
L86671 75759
L86699 75815
L86727 75928
L86727 76068
L86699 76181
L86671 76237
L86643 76265
L86586 76293
L86530 76293
L86474 76265
L86446 76237
L86418 76181
L86390 76068
L86390 75928
L86418 75815
L86446 75759
L86474 75731
L86530 75703
" />
<path d="M87261 75703
L86980 75703
L86952 75984
L86980 75956
L87036 75928
L87177 75928
L87233 75956
L87261 75984
L87289 76040
L87289 76181
L87261 76237
L87233 76265
L87177 76293
L87036 76293
L86980 76265
L86952 76237
" />
</g>
<g style="fill:#000000; fill-opacity:0.0; 
stroke:#000000; stroke-width:39.3701; stroke-opacity:1; 
stroke-linecap:round; stroke-linejoin:round;">
</g>
<g style="fill:#000000; fill-opacity:0.0; 
stroke:#000000; stroke-width:59.0551; stroke-opacity:1; 
stroke-linecap:round; stroke-linejoin:round;">
<path d="M69685 76577
L112205 76577
" />
</g>
<g style="fill:#000000; fill-opacity:0.0; 
stroke:#000000; stroke-width:39.3701; stroke-opacity:1; 
stroke-linecap:round; stroke-linejoin:round;">
</g>
<g style="fill:#000000; fill-opacity:0.0; 
stroke:#000000; stroke-width:59.0551; stroke-opacity:1; 
stroke-linecap:round; stroke-linejoin:round;">
<path d="M70220 77395
L70220 76805
" />
<path d="M70557 77395
L70304 77058
" />
<path d="M70557 76805
L70220 77142
" />
<path d="M70810 77395
L70810 77002
" />
<path d="M70810 76805
L70782 76833
L70810 76861
L70838 76833
L70810 76805
L70810 76861
" />
<path d="M71429 77339
L71401 77367
L71316 77395
L71260 77395
L71176 77367
L71120 77311
L71091 77255
L71063 77142
L71063 77058
L71091 76946
L71120 76889
L71176 76833
L71260 76805
L71316 76805
L71401 76833
L71429 76861
" />
<path d="M71935 77395
L71935 77086
L71907 77030
L71851 77002
L71738 77002
L71682 77030
" />
<path d="M71935 77367
L71879 77395
L71738 77395
L71682 77367
L71654 77311
L71654 77255
L71682 77199
L71738 77171
L71879 77171
L71935 77142
" />
<path d="M72469 77395
L72469 76805
" />
<path d="M72469 77367
L72413 77395
L72301 77395
L72244 77367
L72216 77339
L72188 77283
L72188 77114
L72216 77058
L72244 77030
L72301 77002
L72413 77002
L72469 77030
" />
<path d="M73201 77086
L73397 77086
" />
<path d="M73482 77395
L73201 77395
L73201 76805
L73482 76805
" />
<path d="M73735 77339
L73763 77367
L73735 77395
L73707 77367
L73735 77339
L73735 77395
" />
<path d="M74016 77395
L74016 76805
L74157 76805
L74241 76833
L74297 76889
L74325 76946
L74354 77058
L74354 77142
L74325 77255
L74297 77311
L74241 77367
L74157 77395
L74016 77395
" />
<path d="M74607 77339
L74635 77367
L74607 77395
L74579 77367
L74607 77339
L74607 77395
" />
<path d="M74860 77227
L75141 77227
" />
<path d="M74804 77395
L75000 76805
L75197 77395
" />
<path d="M75394 77339
L75422 77367
L75394 77395
L75366 77367
L75394 77339
L75394 77395
" />
<path d="M76575 77395
L76575 76805
" />
<path d="M76631 77171
L76800 77395
" />
<path d="M76800 77002
L76575 77227
" />
<path d="M77053 77395
L77053 77002
" />
<path d="M77053 76805
L77025 76833
L77053 76861
L77081 76833
L77053 76805
L77053 76861
" />
<path d="M77588 77367
L77531 77395
L77419 77395
L77363 77367
L77334 77339
L77306 77283
L77306 77114
L77334 77058
L77363 77030
L77419 77002
L77531 77002
L77588 77030
" />
<path d="M78094 77395
L78094 77086
L78066 77030
L78009 77002
L77897 77002
L77841 77030
" />
<path d="M78094 77367
L78037 77395
L77897 77395
L77841 77367
L77813 77311
L77813 77255
L77841 77199
L77897 77171
L78037 77171
L78094 77142
" />
<path d="M78628 77395
L78628 76805
" />
<path d="M78628 77367
L78572 77395
L78459 77395
L78403 77367
L78375 77339
L78347 77283
L78347 77114
L78375 77058
L78403 77030
L78459 77002
L78572 77002
L78628 77030
" />
<path d="M79612 77002
L79612 77395
" />
<path d="M79472 76777
L79331 77199
L79697 77199
" />
<path d="M79922 77339
L79950 77367
L79922 77395
L79894 77367
L79922 77339
L79922 77395
" />
<path d="M80315 76805
L80372 76805
L80428 76833
L80456 76861
L80484 76917
L80512 77030
L80512 77171
L80484 77283
L80456 77339
L80428 77367
L80372 77395
L80315 77395
L80259 77367
L80231 77339
L80203 77283
L80175 77171
L80175 77030
L80203 76917
L80231 76861
L80259 76833
L80315 76805
" />
<path d="M80765 77339
L80793 77367
L80765 77395
L80737 77367
L80765 77339
L80765 77395
" />
<path d="M80990 76805
L81384 76805
L81131 77395
" />
</g>
<g style="fill:#000000; fill-opacity:0.0; 
stroke:#000000; stroke-width:39.3701; stroke-opacity:1; 
stroke-linecap:round; stroke-linejoin:round;">
</g>
<g style="fill:#000000; fill-opacity:0.0; 
stroke:#000000; stroke-width:59.0551; stroke-opacity:1; 
stroke-linecap:round; stroke-linejoin:round;">
<path d="M69685 75396
L112205 75396
" />
</g>
<g style="fill:#000000; fill-opacity:0.0; 
stroke:#000000; stroke-width:39.3701; stroke-opacity:1; 
stroke-linecap:round; stroke-linejoin:round;">
</g>
<g style="fill:#000000; fill-opacity:0.0; 
stroke:#000000; stroke-width:118.11; stroke-opacity:1; 
stroke-linecap:round; stroke-linejoin:round;">
<path d="M104022 76293
L103825 76012
" />
<path d="M103684 76293
L103684 75703
L103909 75703
L103965 75731
L103994 75759
L104022 75815
L104022 75899
L103994 75956
L103965 75984
L103909 76012
L103684 76012
" />
<path d="M104500 76265
L104444 76293
L104331 76293
L104275 76265
L104247 76209
L104247 75984
L104275 75928
L104331 75899
L104444 75899
L104500 75928
L104528 75984
L104528 76040
L104247 76096
" />
<path d="M104725 75899
L104865 76293
L105006 75899
" />
<path d="M105231 76237
L105259 76265
L105231 76293
L105203 76265
L105231 76237
L105231 76293
" />
<path d="M105231 75928
L105259 75956
L105231 75984
L105203 75956
L105231 75928
L105231 75984
" />
<path d="M105878 75703
L106075 76293
L106271 75703
" />
<path d="M106778 76293
L106440 76293
" />
<path d="M106609 76293
L106609 75703
L106553 75787
L106496 75843
L106440 75871
" />
<path d="M107031 76237
L107059 76265
L107031 76293
L107003 76265
L107031 76237
L107031 76293
" />
<path d="M107424 75703
L107481 75703
L107537 75731
L107565 75759
L107593 75815
L107621 75928
L107621 76068
L107593 76181
L107565 76237
L107537 76265
L107481 76293
L107424 76293
L107368 76265
L107340 76237
L107312 76181
L107284 76068
L107284 75928
L107312 75815
L107340 75759
L107368 75731
L107424 75703
" />
</g>
<g style="fill:#000000; fill-opacity:0.0; 
stroke:#000000; stroke-width:39.3701; stroke-opacity:1; 
stroke-linecap:round; stroke-linejoin:round;">
</g>
<g style="fill:#000000; fill-opacity:0.0; 
stroke:#000000; stroke-width:59.0551; stroke-opacity:1; 
stroke-linecap:round; stroke-linejoin:round;">
<path d="M70192 76265
L70276 76293
L70417 76293
L70473 76265
L70501 76237
L70529 76181
L70529 76124
L70501 76068
L70473 76040
L70417 76012
L70304 75984
L70248 75956
L70220 75928
L70192 75871
L70192 75815
L70220 75759
L70248 75731
L70304 75703
L70445 75703
L70529 75731
" />
<path d="M70782 76293
L70782 75899
" />
<path d="M70782 75703
L70754 75731
L70782 75759
L70810 75731
L70782 75703
L70782 75759
" />
<path d="M71007 75899
L71316 75899
L71007 76293
L71316 76293
" />
<path d="M71766 76265
L71710 76293
L71598 76293
L71541 76265
L71513 76209
L71513 75984
L71541 75928
L71598 75899
L71710 75899
L71766 75928
L71795 75984
L71795 76040
L71513 76096
" />
<path d="M72048 76237
L72076 76265
L72048 76293
L72019 76265
L72048 76237
L72048 76293
" />
<path d="M72048 75928
L72076 75956
L72048 75984
L72019 75956
L72048 75928
L72048 75984
" />
<path d="M72751 76124
L73032 76124
" />
<path d="M72694 76293
L72891 75703
L73088 76293
" />
<path d="M73538 75899
L73538 76293
" />
<path d="M73397 75674
L73257 76096
L73622 76096
" />
</g>
<g style="fill:#000000; fill-opacity:0.0; 
stroke:#000000; stroke-width:39.3701; stroke-opacity:1; 
stroke-linecap:round; stroke-linejoin:round;">
</g>
<g style="fill:#000000; fill-opacity:0.0; 
stroke:#000000; stroke-width:59.0551; stroke-opacity:1; 
stroke-linecap:round; stroke-linejoin:round;">
<path d="M103684 77395
L103684 76805
" />
<path d="M104219 77395
L104219 76805
" />
<path d="M104219 77367
L104162 77395
L104050 77395
L103994 77367
L103965 77339
L103937 77283
L103937 77114
L103965 77058
L103994 77030
L104050 77002
L104162 77002
L104219 77030
" />
<path d="M104500 77339
L104528 77367
L104500 77395
L104472 77367
L104500 77339
L104500 77395
" />
<path d="M104500 77030
L104528 77058
L104500 77086
L104472 77058
L104500 77030
L104500 77086
" />
<path d="M105540 77395
L105203 77395
" />
<path d="M105372 77395
L105372 76805
L105315 76889
L105259 76946
L105203 76974
" />
<path d="M106215 76777
L105709 77536
" />
<path d="M106721 77395
L106384 77395
" />
<path d="M106553 77395
L106553 76805
L106496 76889
L106440 76946
L106384 76974
" />
</g>
<g style="fill:#000000; fill-opacity:0.0; 
stroke:#000000; stroke-width:39.3701; stroke-opacity:1; 
stroke-linecap:round; stroke-linejoin:round;">
</g>
<g style="fill:#000000; fill-opacity:0.0; 
stroke:#000000; stroke-width:59.0551; stroke-opacity:1; 
stroke-linecap:round; stroke-linejoin:round;">
<path d="M69685 73821
L112205 73821
" />
</g>
<g style="fill:#000000; fill-opacity:0.0; 
stroke:#000000; stroke-width:39.3701; stroke-opacity:1; 
stroke-linecap:round; stroke-linejoin:round;">
</g>
<g style="fill:#000000; fill-opacity:0.0; 
stroke:#000000; stroke-width:157.48; stroke-opacity:1; 
stroke-linecap:round; stroke-linejoin:round;">
<path d="M70257 74099
L70707 74099
" />
<path d="M70384 74886
L70482 74099
" />
<path d="M70871 74886
L70937 74361
" />
<path d="M70970 74099
L70927 74136
L70960 74174
L71002 74136
L70970 74099
L70960 74174
" />
<path d="M71199 74361
L71499 74361
" />
<path d="M71345 74099
L71260 74774
L71288 74849
L71359 74886
L71434 74886
" />
<path d="M71809 74886
L71738 74849
L71710 74774
L71795 74099
" />
<path d="M72413 74849
L72334 74886
L72184 74886
L72113 74849
L72085 74774
L72123 74474
L72169 74399
L72249 74361
L72399 74361
L72469 74399
L72498 74474
L72488 74549
L72104 74624
" />
<path d="M72793 74811
L72826 74849
L72783 74886
L72751 74849
L72793 74811
L72783 74886
" />
<path d="M72844 74399
L72877 74436
L72835 74474
L72802 74436
L72844 74399
L72835 74474
" />
<path d="M74218 74811
L74175 74849
L74058 74886
L73983 74886
L73876 74849
L73810 74774
L73782 74699
L73763 74549
L73777 74436
L73833 74286
L73880 74211
L73965 74136
L74082 74099
L74157 74099
L74265 74136
L74297 74174
" />
<path d="M74658 74886
L74588 74849
L74560 74774
L74644 74099
" />
<path d="M75071 74886
L75000 74849
L74968 74811
L74939 74736
L74968 74511
L75014 74436
L75057 74399
L75136 74361
L75249 74361
L75319 74399
L75352 74436
L75380 74511
L75352 74736
L75305 74811
L75263 74849
L75183 74886
L75071 74886
" />
<path d="M76013 74849
L75933 74886
L75783 74886
L75713 74849
L75680 74811
L75652 74736
L75680 74511
L75727 74436
L75769 74399
L75849 74361
L75999 74361
L76069 74399
" />
<path d="M76346 74886
L76444 74099
" />
<path d="M76458 74586
L76645 74886
" />
<path d="M76711 74361
L76374 74661
" />
<path d="M76786 74961
L77386 74961
" />
<path d="M77958 74886
L77583 74886
L77681 74099
" />
<path d="M78680 74811
L78637 74849
L78520 74886
L78445 74886
L78337 74849
L78272 74774
L78244 74699
L78225 74549
L78239 74436
L78295 74286
L78342 74211
L78427 74136
L78544 74099
L78619 74099
L78726 74136
L78759 74174
" />
<path d="M79008 74886
L79106 74099
L79294 74099
L79401 74136
L79467 74211
L79495 74286
L79514 74436
L79500 74549
L79444 74699
L79397 74774
L79312 74849
L79195 74886
L79008 74886
" />
</g>
<g style="fill:#000000; fill-opacity:0.0; 
stroke:#000000; stroke-width:39.3701; stroke-opacity:1; 
stroke-linecap:round; stroke-linejoin:round;">
</g>
<g style="fill:#000000; fill-opacity:0.0; 
stroke:#000000; stroke-width:59.0551; stroke-opacity:1; 
stroke-linecap:round; stroke-linejoin:round;">
<path d="M70417 73070
L70220 73070
" />
<path d="M70220 73380
L70220 72789
L70501 72789
" />
<path d="M70726 73380
L70726 72986
" />
<path d="M70726 72789
L70698 72817
L70726 72845
L70754 72817
L70726 72789
L70726 72845
" />
<path d="M71091 73380
L71035 73352
L71007 73295
L71007 72789
" />
<path d="M71541 73352
L71485 73380
L71373 73380
L71316 73352
L71288 73295
L71288 73070
L71316 73014
L71373 72986
L71485 72986
L71541 73014
L71570 73070
L71570 73127
L71288 73183
" />
<path d="M71823 73323
L71851 73352
L71823 73380
L71795 73352
L71823 73323
L71823 73380
" />
<path d="M71823 73014
L71851 73042
L71823 73070
L71795 73042
L71823 73014
L71823 73070
" />
<path d="M72891 73323
L72863 73352
L72779 73380
L72723 73380
L72638 73352
L72582 73295
L72554 73239
L72526 73127
L72526 73042
L72554 72930
L72582 72874
L72638 72817
L72723 72789
L72779 72789
L72863 72817
L72891 72845
" />
<path d="M73229 73380
L73172 73352
L73144 73295
L73144 72789
" />
<path d="M73538 73380
L73482 73352
L73454 73323
L73426 73267
L73426 73099
L73454 73042
L73482 73014
L73538 72986
L73622 72986
L73679 73014
L73707 73042
L73735 73099
L73735 73267
L73707 73323
L73679 73352
L73622 73380
L73538 73380
" />
<path d="M74241 73352
L74185 73380
L74072 73380
L74016 73352
L73988 73323
L73960 73267
L73960 73099
L73988 73042
L74016 73014
L74072 72986
L74185 72986
L74241 73014
" />
<path d="M74494 73380
L74494 72789
" />
<path d="M74550 73155
L74719 73380
" />
<path d="M74719 72986
L74494 73211
" />
<path d="M74832 73436
L75282 73436
" />
<path d="M75703 73380
L75422 73380
L75422 72789
" />
<path d="M76238 73323
L76210 73352
L76125 73380
L76069 73380
L75985 73352
L75928 73295
L75900 73239
L75872 73127
L75872 73042
L75900 72930
L75928 72874
L75985 72817
L76069 72789
L76125 72789
L76210 72817
L76238 72845
" />
<path d="M76491 73380
L76491 72789
L76631 72789
L76716 72817
L76772 72874
L76800 72930
L76828 73042
L76828 73127
L76800 73239
L76772 73295
L76716 73352
L76631 73380
L76491 73380
" />
<path d="M77081 73323
L77109 73352
L77081 73380
L77053 73352
L77081 73323
L77081 73380
" />
<path d="M77363 73380
L77363 72789
" />
<path d="M77419 73155
L77588 73380
" />
<path d="M77588 72986
L77363 73211
" />
<path d="M77841 73380
L77841 72986
" />
<path d="M77841 72789
L77813 72817
L77841 72845
L77869 72817
L77841 72789
L77841 72845
" />
<path d="M78375 73352
L78319 73380
L78206 73380
L78150 73352
L78122 73323
L78094 73267
L78094 73099
L78122 73042
L78150 73014
L78206 72986
L78319 72986
L78375 73014
" />
<path d="M78881 73380
L78881 73070
L78853 73014
L78797 72986
L78684 72986
L78628 73014
" />
<path d="M78881 73352
L78825 73380
L78684 73380
L78628 73352
L78600 73295
L78600 73239
L78628 73183
L78684 73155
L78825 73155
L78881 73127
" />
<path d="M79415 73380
L79415 72789
" />
<path d="M79415 73352
L79359 73380
L79247 73380
L79190 73352
L79162 73323
L79134 73267
L79134 73099
L79162 73042
L79190 73014
L79247 72986
L79359 72986
L79415 73014
" />
<path d="M79556 73436
L80006 73436
" />
<path d="M80147 72986
L80147 73577
" />
<path d="M80147 73014
L80203 72986
L80315 72986
L80372 73014
L80400 73042
L80428 73099
L80428 73267
L80400 73323
L80372 73352
L80315 73380
L80203 73380
L80147 73352
" />
<path d="M80934 73352
L80878 73380
L80765 73380
L80709 73352
L80681 73323
L80653 73267
L80653 73099
L80681 73042
L80709 73014
L80765 72986
L80878 72986
L80934 73014
" />
<path d="M81187 73380
L81187 72789
" />
<path d="M81187 73014
L81243 72986
L81356 72986
L81412 73014
L81440 73042
L81468 73099
L81468 73267
L81440 73323
L81412 73352
L81356 73380
L81243 73380
L81187 73352
" />
</g>
<g style="fill:#000000; fill-opacity:0.0; 
stroke:#000000; stroke-width:39.3701; stroke-opacity:1; 
stroke-linecap:round; stroke-linejoin:round;">
</g>
<g style="fill:#000000; fill-opacity:0.0; 
stroke:#000000; stroke-width:59.0551; stroke-opacity:1; 
stroke-linecap:round; stroke-linejoin:round;">
<path d="M69685 71459
L112205 71459
" />
</g>
<g style="fill:#000000; fill-opacity:0.0; 
stroke:#000000; stroke-width:39.3701; stroke-opacity:1; 
stroke-linecap:round; stroke-linejoin:round;">
</g>
<g style="fill:#000000; fill-opacity:0.0; 
stroke:#000000; stroke-width:59.0551; stroke-opacity:1; 
stroke-linecap:round; stroke-linejoin:round;">
<path d="M70192 72289
L70276 72317
L70417 72317
L70473 72289
L70501 72260
L70529 72204
L70529 72148
L70501 72092
L70473 72064
L70417 72036
L70304 72007
L70248 71979
L70220 71951
L70192 71895
L70192 71839
L70220 71782
L70248 71754
L70304 71726
L70445 71726
L70529 71754
" />
<path d="M70782 72317
L70782 71726
" />
<path d="M71035 72317
L71035 72007
L71007 71951
L70951 71923
L70867 71923
L70810 71951
L70782 71979
" />
<path d="M71541 72289
L71485 72317
L71373 72317
L71316 72289
L71288 72232
L71288 72007
L71316 71951
L71373 71923
L71485 71923
L71541 71951
L71570 72007
L71570 72064
L71288 72120
" />
<path d="M72048 72289
L71991 72317
L71879 72317
L71823 72289
L71795 72232
L71795 72007
L71823 71951
L71879 71923
L71991 71923
L72048 71951
L72076 72007
L72076 72064
L71795 72120
" />
<path d="M72244 71923
L72469 71923
" />
<path d="M72329 71726
L72329 72232
L72357 72289
L72413 72317
L72469 72317
" />
<path d="M72666 72260
L72694 72289
L72666 72317
L72638 72289
L72666 72260
L72666 72317
" />
<path d="M72666 71951
L72694 71979
L72666 72007
L72638 71979
L72666 71951
L72666 72007
" />
</g>
<g style="fill:#000000; fill-opacity:0.0; 
stroke:#000000; stroke-width:39.3701; stroke-opacity:1; 
stroke-linecap:round; stroke-linejoin:round;">
</g>
<g style="fill:#000000; fill-opacity:0.0; 
stroke:#000000; stroke-width:118.11; stroke-opacity:1; 
stroke-linecap:round; stroke-linejoin:round;">
<path d="M70135 70545
L70332 71136
L70529 70545
" />
<path d="M70951 71108
L70895 71136
L70782 71136
L70726 71108
L70698 71051
L70698 70826
L70726 70770
L70782 70742
L70895 70742
L70951 70770
L70979 70826
L70979 70883
L70698 70939
" />
<path d="M71232 70742
L71232 71136
" />
<path d="M71232 70798
L71260 70770
L71316 70742
L71401 70742
L71457 70770
L71485 70826
L71485 71136
" />
<path d="M71682 70742
L71907 70742
" />
<path d="M71766 70545
L71766 71051
L71795 71108
L71851 71136
L71907 71136
" />
<path d="M72076 71108
L72132 71136
L72244 71136
L72301 71108
L72329 71051
L72329 71023
L72301 70967
L72244 70939
L72160 70939
L72104 70911
L72076 70854
L72076 70826
L72104 70770
L72160 70742
L72244 70742
L72301 70770
" />
<path d="M72582 70742
L72582 71332
" />
<path d="M72582 70770
L72638 70742
L72751 70742
L72807 70770
L72835 70798
L72863 70854
L72863 71023
L72835 71079
L72807 71108
L72751 71136
L72638 71136
L72582 71108
" />
<path d="M73116 71136
L73116 70742
" />
<path d="M73116 70545
L73088 70573
L73116 70601
L73144 70573
L73116 70545
L73116 70601
" />
<path d="M73482 71136
L73426 71108
L73397 71051
L73397 70545
" />
<path d="M73679 71108
L73735 71136
L73847 71136
L73904 71108
L73932 71051
L73932 71023
L73904 70967
L73847 70939
L73763 70939
L73707 70911
L73679 70854
L73679 70826
L73707 70770
L73763 70742
L73847 70742
L73904 70770
" />
<path d="M74607 70967
L74888 70967
" />
<path d="M74550 71136
L74747 70545
L74944 71136
" />
<path d="M75394 70742
L75394 71136
" />
<path d="M75141 70742
L75141 71051
L75169 71108
L75225 71136
L75310 71136
L75366 71108
L75394 71079
" />
<path d="M75928 70742
L75928 71220
L75900 71276
L75872 71304
L75816 71332
L75732 71332
L75675 71304
" />
<path d="M75928 71108
L75872 71136
L75760 71136
L75703 71108
L75675 71079
L75647 71023
L75647 70854
L75675 70798
L75703 70770
L75760 70742
L75872 70742
L75928 70770
" />
<path d="M76181 71108
L76238 71136
L76350 71136
L76406 71108
L76435 71051
L76435 71023
L76406 70967
L76350 70939
L76266 70939
L76210 70911
L76181 70854
L76181 70826
L76210 70770
L76266 70742
L76350 70742
L76406 70770
" />
<path d="M76603 70742
L76828 70742
" />
<path d="M76688 70545
L76688 71051
L76716 71108
L76772 71136
L76828 71136
" />
<path d="M76997 71108
L77053 71136
L77166 71136
L77222 71108
L77250 71051
L77250 71023
L77222 70967
L77166 70939
L77081 70939
L77025 70911
L76997 70854
L76997 70826
L77025 70770
L77081 70742
L77166 70742
L77222 70770
" />
<path d="M77503 71136
L77503 70545
" />
<path d="M77559 70911
L77728 71136
" />
<path d="M77728 70742
L77503 70967
" />
<path d="M78066 71136
L78009 71108
L77981 71079
L77953 71023
L77953 70854
L77981 70798
L78009 70770
L78066 70742
L78150 70742
L78206 70770
L78234 70798
L78262 70854
L78262 71023
L78234 71079
L78206 71108
L78150 71136
L78066 71136
" />
<path d="M78600 71136
L78544 71108
L78516 71051
L78516 70545
" />
<path d="M79078 71136
L79078 70826
L79050 70770
L78994 70742
L78881 70742
L78825 70770
" />
<path d="M79078 71108
L79022 71136
L78881 71136
L78825 71108
L78797 71051
L78797 70995
L78825 70939
L78881 70911
L79022 70911
L79078 70883
" />
</g>
<g style="fill:#000000; fill-opacity:0.0; 
stroke:#000000; stroke-width:39.3701; stroke-opacity:1; 
stroke-linecap:round; stroke-linejoin:round;">
</g>
<g style="fill:#000000; fill-opacity:0.0; 
stroke:#000000; stroke-width:59.0551; stroke-opacity:1; 
stroke-linecap:round; stroke-linejoin:round;">
<path d="M70220 69645
L70417 69645
" />
<path d="M70501 69955
L70220 69955
L70220 69364
L70501 69364
" />
<path d="M70754 69955
L70754 69561
" />
<path d="M70754 69673
L70782 69617
L70810 69589
L70867 69561
L70923 69561
" />
<path d="M71120 69561
L71120 69955
" />
<path d="M71120 69617
L71148 69589
L71204 69561
L71288 69561
L71345 69589
L71373 69645
L71373 69955
" />
<path d="M71879 69926
L71823 69955
L71710 69955
L71654 69926
L71626 69870
L71626 69645
L71654 69589
L71710 69561
L71823 69561
L71879 69589
L71907 69645
L71907 69701
L71626 69758
" />
<path d="M72132 69926
L72188 69955
L72301 69955
L72357 69926
L72385 69870
L72385 69842
L72357 69786
L72301 69758
L72216 69758
L72160 69730
L72132 69673
L72132 69645
L72160 69589
L72216 69561
L72301 69561
L72357 69589
" />
<path d="M72554 69561
L72779 69561
" />
<path d="M72638 69364
L72638 69870
L72666 69926
L72723 69955
L72779 69955
" />
<path d="M72947 69926
L73004 69955
L73116 69955
L73172 69926
L73201 69870
L73201 69842
L73172 69786
L73116 69758
L73032 69758
L72976 69730
L72947 69673
L72947 69645
L72976 69589
L73032 69561
L73116 69561
L73172 69589
" />
<path d="M74100 69645
L74185 69673
L74213 69701
L74241 69758
L74241 69842
L74213 69898
L74185 69926
L74129 69955
L73904 69955
L73904 69364
L74100 69364
L74157 69392
L74185 69420
L74213 69476
L74213 69533
L74185 69589
L74157 69617
L74100 69645
L73904 69645
" />
<path d="M74494 69955
L74494 69561
" />
<path d="M74494 69673
L74522 69617
L74550 69589
L74607 69561
L74663 69561
" />
<path d="M75085 69926
L75028 69955
L74916 69955
L74860 69926
L74832 69870
L74832 69645
L74860 69589
L74916 69561
L75028 69561
L75085 69589
L75113 69645
L75113 69701
L74832 69758
" />
<path d="M75619 69955
L75619 69364
" />
<path d="M75619 69926
L75563 69955
L75450 69955
L75394 69926
L75366 69898
L75338 69842
L75338 69673
L75366 69617
L75394 69589
L75450 69561
L75563 69561
L75619 69589
" />
<path d="M75900 69955
L75900 69561
" />
<path d="M75900 69364
L75872 69392
L75900 69420
L75928 69392
L75900 69364
L75900 69420
" />
<path d="M76181 69955
L76181 69364
" />
<path d="M76238 69730
L76406 69955
" />
<path d="M76406 69561
L76181 69786
" />
<path d="M76660 69955
L76660 69561
" />
<path d="M76660 69364
L76631 69392
L76660 69420
L76688 69392
L76660 69364
L76660 69420
" />
<path d="M76913 69926
L76969 69955
L77081 69955
L77138 69926
L77166 69870
L77166 69842
L77138 69786
L77081 69758
L76997 69758
L76941 69730
L76913 69673
L76913 69645
L76941 69589
L76997 69561
L77081 69561
L77138 69589
" />
</g>
<g style="fill:#000000; fill-opacity:0.0; 
stroke:#000000; stroke-width:39.3701; stroke-opacity:1; 
stroke-linecap:round; stroke-linejoin:round;">
</g>
<g style="fill:#000000; fill-opacity:0.0; 
stroke:#000000; stroke-width:59.0551; stroke-opacity:1; 
stroke-linecap:round; stroke-linejoin:round;">
<path d="M70192 68605
L70473 68605
" />
<path d="M70135 68773
L70332 68183
L70529 68773
" />
<path d="M70979 68380
L70979 68773
" />
<path d="M70726 68380
L70726 68689
L70754 68745
L70810 68773
L70895 68773
L70951 68745
L70979 68717
" />
<path d="M71176 68380
L71401 68380
" />
<path d="M71260 68183
L71260 68689
L71288 68745
L71345 68773
L71401 68773
" />
<path d="M71682 68773
L71626 68745
L71598 68717
L71570 68661
L71570 68492
L71598 68436
L71626 68408
L71682 68380
L71766 68380
L71823 68408
L71851 68436
L71879 68492
L71879 68661
L71851 68717
L71823 68745
L71766 68773
L71682 68773
" />
<path d="M72132 68773
L72132 68380
" />
<path d="M72132 68492
L72160 68436
L72188 68408
L72244 68380
L72301 68380
" />
<path d="M72469 68745
L72526 68773
L72638 68773
L72694 68745
L72723 68689
L72723 68661
L72694 68605
L72638 68577
L72554 68577
L72498 68548
L72469 68492
L72469 68464
L72498 68408
L72554 68380
L72638 68380
L72694 68408
" />
<path d="M72976 68717
L73004 68745
L72976 68773
L72947 68745
L72976 68717
L72976 68773
" />
<path d="M72976 68408
L73004 68436
L72976 68464
L72947 68436
L72976 68408
L72976 68464
" />
</g>
<g style="fill:#000000; fill-opacity:0.0; 
stroke:#000000; stroke-width:39.3701; stroke-opacity:1; 
stroke-linecap:round; stroke-linejoin:round;">
</g>
<g style="fill:#000000; fill-opacity:0.0; 
stroke:#000000; stroke-width:59.0551; stroke-opacity:1; 
stroke-linecap:round; stroke-linejoin:round;">
<path d="M70220 67592
L70220 67002
L70445 67002
L70501 67030
L70529 67058
L70557 67114
L70557 67199
L70529 67255
L70501 67283
L70445 67311
L70220 67311
" />
<path d="M71148 67536
L71120 67564
L71035 67592
L70979 67592
L70895 67564
L70838 67508
L70810 67452
L70782 67339
L70782 67255
L70810 67142
L70838 67086
L70895 67030
L70979 67002
L71035 67002
L71120 67030
L71148 67058
" />
<path d="M71598 67283
L71682 67311
L71710 67339
L71738 67395
L71738 67480
L71710 67536
L71682 67564
L71626 67592
L71401 67592
L71401 67002
L71598 67002
L71654 67030
L71682 67058
L71710 67114
L71710 67171
L71682 67227
L71654 67255
L71598 67283
L71401 67283
" />
<path d="M71851 67649
L72301 67649
" />
<path d="M72441 67592
L72441 67002
" />
<path d="M72779 67592
L72526 67255
" />
<path d="M72779 67002
L72441 67339
" />
<path d="M73032 67592
L73032 67199
" />
<path d="M73032 67002
L73004 67030
L73032 67058
L73060 67030
L73032 67002
L73032 67058
" />
<path d="M73651 67536
L73622 67564
L73538 67592
L73482 67592
L73397 67564
L73341 67508
L73313 67452
L73285 67339
L73285 67255
L73313 67142
L73341 67086
L73397 67030
L73482 67002
L73538 67002
L73622 67030
L73651 67058
" />
<path d="M73876 67424
L74157 67424
" />
<path d="M73819 67592
L74016 67002
L74213 67592
" />
<path d="M74410 67592
L74410 67002
L74550 67002
L74635 67030
L74691 67086
L74719 67142
L74747 67255
L74747 67339
L74719 67452
L74691 67508
L74635 67564
L74550 67592
L74410 67592
" />
<path d="M74860 67649
L75310 67649
" />
<path d="M75703 67564
L75647 67592
L75535 67592
L75478 67564
L75450 67536
L75422 67480
L75422 67311
L75450 67255
L75478 67227
L75535 67199
L75647 67199
L75703 67227
" />
<path d="M76041 67592
L75985 67564
L75956 67536
L75928 67480
L75928 67311
L75956 67255
L75985 67227
L76041 67199
L76125 67199
L76181 67227
L76210 67255
L76238 67311
L76238 67480
L76210 67536
L76181 67564
L76125 67592
L76041 67592
" />
<path d="M76744 67199
L76744 67592
" />
<path d="M76491 67199
L76491 67508
L76519 67564
L76575 67592
L76660 67592
L76716 67564
L76744 67536
" />
<path d="M77025 67592
L77025 67199
" />
<path d="M77025 67311
L77053 67255
L77081 67227
L77138 67199
L77194 67199
" />
<path d="M77363 67564
L77419 67592
L77531 67592
L77588 67564
L77616 67508
L77616 67480
L77588 67424
L77531 67395
L77447 67395
L77391 67367
L77363 67311
L77363 67283
L77391 67227
L77447 67199
L77531 67199
L77588 67227
" />
<path d="M78094 67564
L78037 67592
L77925 67592
L77869 67564
L77841 67508
L77841 67283
L77869 67227
L77925 67199
L78037 67199
L78094 67227
L78122 67283
L78122 67339
L77841 67395
" />
</g>
<g style="fill:#000000; fill-opacity:0.0; 
stroke:#000000; stroke-width:39.3701; stroke-opacity:1; 
stroke-linecap:round; stroke-linejoin:round;">
</g>
<g style="fill:#000000; fill-opacity:0.0; 
stroke:#000000; stroke-width:59.0551; stroke-opacity:1; 
stroke-linecap:round; stroke-linejoin:round;">
<path d="M77559 75396
L77559 76577
" />
</g>
<g style="fill:#000000; fill-opacity:0.0; 
stroke:#000000; stroke-width:39.3701; stroke-opacity:1; 
stroke-linecap:round; stroke-linejoin:round;">
</g>
<g style="fill:#000000; fill-opacity:0.0; 
stroke:#000000; stroke-width:59.0551; stroke-opacity:1; 
stroke-linecap:round; stroke-linejoin:round;">
<path d="M102756 75396
L102756 77955
" />
</g>
<g style="fill:#C2C200; fill-opacity:0.0; 
stroke:#C2C200; stroke-width:59.0551; stroke-opacity:1; 
stroke-linecap:round; stroke-linejoin:round;">
<path d="M75000 30000 A5000 5000 0.0 0 0 70000 25000 " />
<path d="M35000 25000 A5000 5000 0.0 0 0 30000 30000 " />
<path d="M30000 50000 A5000 5000 0.0 0 0 35000 55000 " />
<path d="M70000 55000 A5000 5000 0.0 0 0 75000 50000 " />
<path d="M75000 30000
L75000 50000
" />
<path d="M35000 55000
L70000 55000
" />
<path d="M35000 25000
L70000 25000
" />
<path d="M30000 50000
L30000 30000
" />
<path d="M41230 38678
L41230 38284
L41324 38284
L41380 38303
L41418 38340
L41436 38378
L41455 38453
L41455 38509
L41436 38584
L41418 38621
L41380 38659
L41324 38678
L41230 38678
" />
<path d="M41605 38659
L41661 38678
L41755 38678
L41793 38659
L41811 38640
L41830 38603
L41830 38565
L41811 38528
L41793 38509
L41755 38490
L41680 38471
L41643 38453
L41624 38434
L41605 38396
L41605 38359
L41624 38321
L41643 38303
L41680 38284
L41774 38284
L41830 38303
" />
<path d="M42205 38678
L41980 38678
" />
<path d="M42092 38678
L42092 38284
L42055 38340
L42017 38378
L41980 38396
" />
<path d="M38221 46302
L38203 46320
L38146 46339
L38109 46339
L38053 46320
L38015 46283
L37996 46245
L37978 46170
L37978 46114
L37996 46039
L38015 46002
L38053 45964
L38109 45945
L38146 45945
L38203 45964
L38221 45983
" />
<path d="M38353 45945
L38596 45945
L38465 46095
L38521 46095
L38559 46114
L38577 46133
L38596 46170
L38596 46264
L38577 46302
L38559 46320
L38521 46339
L38409 46339
L38371 46320
L38353 46302
" />
<path d="M53833 28520
L53833 28839
L53852 28876
L53871 28895
L53908 28914
L53983 28914
L54021 28895
L54040 28876
L54058 28839
L54058 28520
" />
<path d="M54227 28558
L54246 28539
L54283 28520
L54377 28520
L54415 28539
L54433 28558
L54452 28595
L54452 28633
L54433 28689
L54208 28914
L54452 28914
" />
<path d="M68513 29813
L68513 30000
" />
<path d="M68382 29607
L68513 29813
L68644 29607
" />
<path d="M68982 30000
L68757 30000
" />
<path d="M68869 30000
L68869 29607
L68832 29663
L68794 29700
L68757 29719
" />
<path d="M33368 48784
L33368 49065
L33350 49121
L33312 49159
L33256 49178
L33218 49178
" />
<path d="M33762 49178
L33537 49178
" />
<path d="M33649 49178
L33649 48784
L33612 48840
L33574 48878
L33537 48896
" />
<path d="M37289 27530
L37345 27549
L37364 27568
L37382 27605
L37382 27662
L37364 27699
L37345 27718
L37307 27737
L37157 27737
L37157 27343
L37289 27343
L37326 27362
L37345 27380
L37364 27418
L37364 27455
L37345 27493
L37326 27512
L37289 27530
L37157 27530
" />
<path d="M37495 27343
L37720 27343
" />
<path d="M37607 27737
L37607 27343
" />
<path d="M38057 27737
L37832 27737
" />
<path d="M37945 27737
L37945 27343
L37907 27399
L37870 27437
L37832 27455
" />
</g>
<g style="fill:#008484; fill-opacity:0.0; 
stroke:#008484; stroke-width:59.0551; stroke-opacity:1; 
stroke-linecap:round; stroke-linejoin:round;">
<path d="M37542 30248
L37542 29798
" />
<path d="M37767 30023
L37317 30023
" />
</g>
<g style="fill:#C2C200; fill-opacity:0.0; 
stroke:#C2C200; stroke-width:59.0551; stroke-opacity:1; 
stroke-linecap:round; stroke-linejoin:round;">
<path d="M33368 44284
L33368 44565
L33350 44621
L33312 44659
L33256 44678
L33218 44678
" />
<path d="M33537 44321
L33556 44303
L33593 44284
L33687 44284
L33724 44303
L33743 44321
L33762 44359
L33762 44396
L33743 44453
L33518 44678
L33762 44678
" />
<path d="M43115 35304
L42984 35116
" />
<path d="M42890 35304
L42890 34910
L43040 34910
L43077 34929
L43096 34947
L43115 34985
L43115 35041
L43096 35079
L43077 35097
L43040 35116
L42890 35116
" />
<path d="M43490 35304
L43265 35304
" />
<path d="M43377 35304
L43377 34910
L43340 34966
L43302 35004
L43265 35022
" />
<path d="M43123 33819
L42992 33632
" />
<path d="M42898 33819
L42898 33426
L43048 33426
L43085 33444
L43104 33463
L43123 33501
L43123 33557
L43104 33594
L43085 33613
L43048 33632
L42898 33632
" />
<path d="M43273 33463
L43292 33444
L43329 33426
L43423 33426
L43460 33444
L43479 33463
L43498 33501
L43498 33538
L43479 33594
L43254 33819
L43498 33819
" />
<path d="M52162 28130
L52031 27943
" />
<path d="M51937 28130
L51937 27737
L52087 27737
L52125 27755
L52143 27774
L52162 27812
L52162 27868
L52143 27905
L52125 27924
L52087 27943
L51937 27943
" />
<path d="M52293 27737
L52537 27737
L52406 27887
L52462 27887
L52500 27905
L52518 27924
L52537 27962
L52537 28055
L52518 28093
L52500 28112
L52462 28130
L52350 28130
L52312 28112
L52293 28093
" />
<path d="M50501 28130
L50370 27943
" />
<path d="M50276 28130
L50276 27737
L50426 27737
L50463 27755
L50482 27774
L50501 27812
L50501 27868
L50482 27905
L50463 27924
L50426 27943
L50276 27943
" />
<path d="M50857 27737
L50670 27737
L50651 27924
L50670 27905
L50707 27887
L50801 27887
L50838 27905
L50857 27924
L50876 27962
L50876 28055
L50857 28093
L50838 28112
L50801 28130
L50707 28130
L50670 28112
L50651 28093
" />
<path d="M47817 32919
L47873 32937
L47967 32937
L48005 32919
L48023 32900
L48042 32862
L48042 32825
L48023 32787
L48005 32769
L47967 32750
L47892 32731
L47855 32712
L47836 32694
L47817 32656
L47817 32619
L47836 32581
L47855 32562
L47892 32544
L47986 32544
L48042 32562
" />
<path d="M48173 32544
L48267 32937
L48342 32656
L48417 32937
L48511 32544
" />
<path d="M48867 32937
L48642 32937
" />
<path d="M48754 32937
L48754 32544
L48717 32600
L48679 32637
L48642 32656
" />
<path d="M35700 45284
L35700 45603
L35718 45640
L35737 45659
L35775 45678
L35850 45678
L35887 45659
L35906 45640
L35925 45603
L35925 45284
" />
<path d="M36318 45678
L36093 45678
" />
<path d="M36206 45678
L36206 45284
L36168 45340
L36131 45378
L36093 45396
" />
<path d="M47211 27646
L47211 27965
L47230 28002
L47249 28021
L47286 28040
L47361 28040
L47399 28021
L47418 28002
L47436 27965
L47436 27646
" />
<path d="M47586 27646
L47830 27646
L47699 27796
L47755 27796
L47793 27815
L47811 27834
L47830 27871
L47830 27965
L47811 28002
L47793 28021
L47755 28040
L47643 28040
L47605 28021
L47586 28002
" />
<path d="M41320 28246
L41320 28434
" />
<path d="M41189 28040
L41320 28246
L41451 28040
" />
<path d="M41564 28077
L41582 28059
L41620 28040
L41714 28040
L41751 28059
L41770 28077
L41789 28115
L41789 28152
L41770 28209
L41545 28434
L41789 28434
" />
<path d="M44727 34908
L44745 34926
L44764 34983
L44764 35020
L44745 35076
L44708 35114
L44670 35133
L44595 35151
L44539 35151
L44464 35133
L44427 35114
L44389 35076
L44371 35020
L44371 34983
L44389 34926
L44408 34908
" />
<path d="M44764 34533
L44764 34758
" />
<path d="M44764 34645
L44371 34645
L44427 34683
L44464 34720
L44483 34758
" />
<path d="M37837 49565
L37856 49584
L37874 49640
L37874 49678
L37856 49734
L37818 49771
L37781 49790
L37706 49809
L37649 49809
L37574 49790
L37537 49771
L37500 49734
L37481 49678
L37481 49640
L37500 49584
L37518 49565
" />
<path d="M37518 49415
L37500 49396
L37481 49359
L37481 49265
L37500 49228
L37518 49209
L37556 49190
L37593 49190
L37649 49209
L37874 49434
L37874 49190
" />
<path d="M70997 30849
L70978 30868
L70922 30886
L70884 30886
L70828 30868
L70791 30830
L70772 30793
L70753 30718
L70753 30661
L70772 30586
L70791 30549
L70828 30511
L70884 30493
L70922 30493
L70978 30511
L70997 30530
" />
<path d="M71334 30624
L71334 30886
" />
<path d="M71241 30474
L71147 30755
L71391 30755
" />
<path d="M71095 32817
L71077 32836
L71020 32855
L70983 32855
L70927 32836
L70889 32799
L70870 32761
L70852 32686
L70852 32630
L70870 32555
L70889 32517
L70927 32480
L70983 32461
L71020 32461
L71077 32480
L71095 32499
" />
<path d="M71452 32461
L71264 32461
L71245 32649
L71264 32630
L71302 32611
L71395 32611
L71433 32630
L71452 32649
L71470 32686
L71470 32780
L71452 32817
L71433 32836
L71395 32855
L71302 32855
L71264 32836
L71245 32817
" />
<path d="M45552 37368
L45364 37500
" />
<path d="M45552 37593
L45158 37593
L45158 37443
L45177 37406
L45195 37387
L45233 37368
L45289 37368
L45327 37387
L45345 37406
L45364 37443
L45364 37593
" />
<path d="M45158 37031
L45158 37106
L45177 37143
L45195 37162
L45252 37200
L45327 37218
L45477 37218
L45514 37200
L45533 37181
L45552 37143
L45552 37068
L45533 37031
L45514 37012
L45477 36993
L45383 36993
L45345 37012
L45327 37031
L45308 37068
L45308 37143
L45327 37181
L45345 37200
L45383 37218
" />
<path d="M69745 36246
L69557 36377
" />
<path d="M69745 36471
L69351 36471
L69351 36321
L69370 36284
L69388 36265
L69426 36246
L69482 36246
L69520 36265
L69538 36284
L69557 36321
L69557 36471
" />
<path d="M69482 35909
L69745 35909
" />
<path d="M69332 36002
L69613 36096
L69613 35853
" />
</g>
<g style="fill:#008484; fill-opacity:0.0; 
stroke:#008484; stroke-width:59.0551; stroke-opacity:1; 
stroke-linecap:round; stroke-linejoin:round;">
</g>
<g style="fill:#008484; fill-opacity:0.0; 
stroke:#008484; stroke-width:47.2441; stroke-opacity:1; 
stroke-linecap:round; stroke-linejoin:round;">
<path d="M40795 53244
L72401 53244
" />
<path d="M72401 53244
L72401 38960
" />
<path d="M72401 38960
L41110 38960
" />
<path d="M40795 38960
L40795 53244
" />
<path d="M40799 38960
L41110 38960
" />
<path d="M43409 38818
L44590 38818
" />
<path d="M44078 43149
L69078 43149
" />
<path d="M43882 48858
L43882 43346
" />
<path d="M69079 49055
L44078 49055
" />
<path d="M69275 43346
L69275 48858
" />
<path d="M69275.6 43346.5 A196.85 196.85 0.0 0 0 69078.7 43149.6 " />
<path d="M69079 49055 A197 197 0.0 0 0 69276 48858 " />
<path d="M43882 48858 A197 197 0.0 0 0 44079 49055 " />
<path d="M44079 43149 A197 197 0.0 0 0 43882 43346 " />
<path d="M42031 41181
L70771 41181
" />
<path d="M70771 41181
L70771 51023
" />
<path d="M70771 51023
L42031 51023
" />
<path d="M42031 51023
L42031 41181
" />
<path d="M38669 47261
L38669 47723
" />
<path d="M37991 47261
L37991 47723
" />
<path d="M53531.5 33015.7 A393.701 393.701 0.0 0 0 53531.5 32228.3 " />
<path d="M53531 33015
L53531 35165
" />
<path d="M53531 35165
L67578 35165
" />
<path d="M67578 35165
L67578 30078
" />
<path d="M67578 30078
L53531 30078
" />
<path d="M53531 30078
L53531 32228
" />
<path d="M53507 36145
L67602 36145
" />
<path d="M67602 36145
L67602 29098
" />
<path d="M67602 29098
L53507 29098
" />
<path d="M53507 29098
L53507 36145
" />
<path d="M67669 33678
L67669 31218
" />
<path d="M69657 33678
L69657 31218
" />
<path d="M67669.3 33678.7 A994.094 994.094 0.0 0 0 69657.5 33678.7 " />
<path d="M69657.5 31218.1 A994.094 994.094 0.0 0 0 67669.3 31218.1 " />
<path d="M36122 30614.2 A4525.89 4525.89 0.0 0 0 37517.8 39451.1 " />
<path d="M36111.7 30614.9 A314.961 314.961 0.0 0 0 36318.9 30318.9 " />
<path d="M37482.2 39451.1 A4525.89 4525.89 0.0 0 0 38878 30614.2 " />
<path d="M38681.1 30318.9 A314.961 314.961 0.0 0 0 38888.3 30614.9 " />
<path d="M38681 28074
L38681 30318
" />
<path d="M36318 28074
L38681 28074
" />
<path d="M36318 28074
L36318 30318
" />
<path d="M43417 36141
L42944 36141
" />
<path d="M42944 35448
L43417 35448
" />
<path d="M43425 34657
L42952 34657
" />
<path d="M42952 33964
L43425 33964
" />
<path d="M51905 29507
L51905 29035
" />
<path d="M52598 29035
L52598 29507
" />
<path d="M50204 29476
L50204 29003
" />
<path d="M50897 29003
L50897 29476
" />
<path d="M47456 35712
L49228 35712
" />
<path d="M46964 34137
L46964 34728
" />
<path d="M49228 33153
L47456 33153
" />
<path d="M49720 34728
L49720 34137
" />
<path d="M34968 50015
L34968 45984
" />
<path d="M36795 50015
L36795 45984
" />
<path d="M34968 50015
L36795 50015
" />
<path d="M34968 45984
L36795 45984
" />
<path d="M35562 50015
L35562 45984
" />
<path d="M34968 48728
L35562 48728
" />
<path d="M34968 47271
L35562 47271
" />
<path d="M47118.1 28255.9 A393.701 393.701 0.0 0 0 47905.5 28255.9 " />
<path d="M47118 28255
L46468 28255
" />
<path d="M46468 28255
L46468 32303
" />
<path d="M46468 32303
L48555 32303
" />
<path d="M48555 32303
L48555 28255
" />
<path d="M48555 28255
L47905 28255
" />
<path d="M42799 28775
L40082 28775
" />
<path d="M40082 28775
L40082 29744
" />
<path d="M40082 29744
L42799 29744
" />
<path d="M42799 29744
L42799 28775
" />
<path d="M42799 29122
L43153 28885
" />
<path d="M43153 28885
L43232 28885
" />
<path d="M42799 29397
L43153 29633
" />
<path d="M43153 29633
L43232 29633
" />
<path d="M44999 35046
L44999 34583
" />
<path d="M45677 35046
L45677 34583
" />
<path d="M38685 49268
L38685 49731
" />
<path d="M38007 49268
L38007 49731
" />
<path d="M71361 31811
L70898 31811
" />
<path d="M71361 31133
L70898 31133
" />
<path d="M71416 33768
L70953 33768
" />
<path d="M71416 33090
L70953 33090
" />
<path d="M46338 36582
L46338 38047
" />
<path d="M45661 36582
L45661 38047
" />
<path d="M68551 36417
L68551 35944
" />
<path d="M69244 35944
L69244 36417
" />
</g> 
</svg>
